<?xml version="1.0" encoding="iso-8859-1"?>
<!-- Generator: Adobe Illustrator 16.0.0, SVG Export Plug-In . SVG Version: 6.00 Build 0)  -->
<!DOCTYPE svg PUBLIC "-//W3C//DTD SVG 1.1//EN" "http://www.w3.org/Graphics/SVG/1.1/DTD/svg11.dtd">
<svg xmlns="http://www.w3.org/2000/svg" xmlns:xlink="http://www.w3.org/1999/xlink" version="1.1" id="Capa_1" x="0px" y="0px" width="512px" height="512px" viewBox="0 0 554.593 554.593" style="enable-background:new 0 0 554.593 554.593;" xml:space="preserve">
<g>
	<g>
		<path d="M96.175,266.294l51.112-8.664c8.357-1.415,13.999-9.371,12.584-17.738l-5.192-30.591    c-0.774-4.542-5.087-7.602-9.629-6.837l-64.968,11.016c-4.542,0.784-7.602,5.097-6.837,9.62l5.192,30.61    C79.862,262.068,87.818,267.71,96.175,266.294z M157.27,240.333c0.258,1.549,0.229,3.069-0.048,4.513    c-0.478,2.458-5.011,1.597-9.199-1.625l-12.116-9.333c-4.188-3.223-4.523-8.845-0.765-12.546l8.291-8.167    c3.758-3.71,7.487-6.148,8.014-5.23c0.306,0.545,0.526,1.138,0.641,1.788L157.27,240.333z M145.499,205.066    c0.392-0.067,0.784-0.096,1.176-0.086c0.65,0.02-1.903,3.166-5.661,6.866l-22.08,21.735c-0.947,0.938-2.983,1.291-4.179,0.708    l-27.75-13.235c-4.762-2.276-8.205-4.427-7.602-4.667c0.363-0.144,0.736-0.249,1.138-0.306L145.499,205.066z M75.855,222.661    c-0.105-0.65-0.096-1.291,0.01-1.903c0.191-1.042,4.504,0.048,9.266,2.333l11.035,5.269c4.762,2.276,6.283,7.708,3.395,12.125    l-8.367,12.813c-2.888,4.418-7.086,6.723-8.473,4.447c-0.812-1.339-1.396-2.85-1.673-4.494L75.855,222.661z M93.459,254.657    l8.511-13.043c2.888-4.418,6.665-7.315,8.434-6.464l3.204,1.54c1.09,0.526,2.429,0.688,3.777,0.45    c1.33-0.22,2.544-0.804,3.385-1.664c0,0,1.262-1.243,2.821-2.783c1.559-1.54,6.216-0.172,10.404,3.05l12.431,9.572    c4.188,3.223,6.34,7.277,4.322,8.367c-1.186,0.641-2.505,1.109-3.911,1.339l-51.121,8.683c-1.31,0.22-2.591,0.229-3.834,0.067    C89.788,263.464,90.572,259.084,93.459,254.657z" fill="#FFFFFF"/>
		<path d="M303.844,280.007c5.174,1.062,12.823,4.438,17.089,7.555l9.285,6.779c1.233,0.899,2.562,1.368,3.825,1.368    c2.754,0,4.79-2.057,5.211-5.23l3.691-27.751l5.986-29.251c1.329-6.483,0.048-13.091-3.605-18.599    c-3.644-5.527-9.228-9.304-15.721-10.624l-29.242-5.977c-1.645-0.334-3.318-0.507-4.991-0.507    c-11.705,0-21.898,8.329-24.241,19.813l-5.977,29.252c-1.329,6.483-0.048,13.091,3.605,18.599    c3.643,5.527,9.228,9.304,15.711,10.624L303.844,280.007z M275.836,218.53c1.893-9.266,10.117-15.988,19.555-15.988    c1.349,0,2.697,0.153,4.035,0.411l29.242,5.977c5.231,1.061,9.735,4.112,12.681,8.568c2.944,4.446,3.978,9.792,2.906,15.013    l-6.015,29.395l-3.72,27.941c-0.076,0.584-0.277,1.062-0.469,1.062c-0.182,0-0.555-0.114-1.004-0.449l-9.706-7.086    c-4.265-3.117-11.915-6.521-17.078-7.621l-20.827-4.409c-5.23-1.061-9.735-4.112-12.671-8.568    c-2.945-4.446-3.978-9.792-2.906-15.013L275.836,218.53z" fill="#FFFFFF"/>
		<path d="M291.04,247.15c-0.756,1.3-2.018,2.238-2.314,2.582c-0.2,0.229-0.277,0.507-0.268,0.755    c0.02,0.201,0.115,0.918,1.052,1.119c0.708,0.144,3.672,0.182,6.694-0.516c3.624-0.851,6.282-3.032,6.761-2.984    c0.487,0.048,2.266,3.634,5.842,6.302c3.577,2.668,8.311,6.062,10.959,8.004c2.209,1.625,4.638,2.62,5.25,2.754    c0.746,0.153,1.214-0.22,1.396-0.631c0.095-0.21,0.143-0.488,0.057-0.775c-0.124-0.42-0.812-1.597-0.966-2.84    c-0.152-1.243,3.701-2.467,7.392-5.04c2.372-1.654,3.988-3.92,4.514-6.541c1.416-6.875-5.087-14.047-14.478-15.97    c-0.086-0.009-0.172-0.019-0.258-0.038c-0.134-0.019-0.401-1.138-0.899-2.391c-0.286-0.736-0.65-1.473-1.1-2.18    c-2.802-4.466-8.338-7.918-14.812-9.247c-10.623-2.17-20.559,2.372-22.146,10.146c-0.611,2.983,0.086,6.062,1.855,8.845    C288.314,242.818,291.786,245.859,291.04,247.15z M322.644,236.517c0.058-0.536,4.6-0.316,8.616,3.107    c3.061,2.601,4.676,5.996,4.007,9.276c-0.86,4.188-5.25,7.21-11.179,7.679c-0.573,0.057-1.014,0.545-0.994,1.119    c0.019,0.813,0.048,1.568,0.104,2.247c0.096,1.243-1.357,1.473-3.002,0.048c-1.129-0.975-1.979-2.075-2.19-3.184    c-0.076-0.411-0.382-0.746-0.793-0.861c-2.362-0.603-4.495-1.53-6.283-2.696c-3.175-2.066-0.134-4.743,4.542-7.191    c3.691-1.932,6.273-4.953,7.02-8.597C322.558,237.158,322.615,236.842,322.644,236.517z M318.828,229.909    c1.444,2.314,1.903,4.781,1.311,7.134c-1.616,6.33-9.505,10.069-18.36,8.702c-0.43-0.057-0.851,0.134-1.08,0.488    c-0.756,1.147-2.257,1.932-3.911,2.448c-2.486,0.775-3.949-0.172-3.251-1.501c0.382-0.727,0.784-1.54,1.195-2.438    c0.238-0.545,0.028-1.157-0.488-1.435c-6.081-3.175-9.352-8.367-8.367-13.206c1.349-6.589,10.127-10.385,19.575-8.463    C311.341,222.852,316.343,225.95,318.828,229.909z" fill="#FFFFFF"/>
		<circle cx="292.111" cy="231.219" r="1.521" fill="#FFFFFF"/>
		<circle cx="302.189" cy="233.275" r="1.52" fill="#FFFFFF"/>
		<circle cx="312.269" cy="235.331" r="1.521" fill="#FFFFFF"/>
		<path d="M541.635,164.32l-120.144-33.153c-5.087-1.406-7.841-6.675-7.669-11.953c0.115-3.653-0.325-7.373-1.396-11.064    l-11.705-40.115c-4.475-15.338-18.742-26.058-34.692-26.058c-3.414,0-6.818,0.507-10.117,1.453l-40.134,11.695    c-19.115,5.584-30.15,25.685-24.585,44.81l7.124,24.423c1.481,5.068-0.822,11.647-5.136,14.697l-103.361,72.943    c-4.312,3.05-8.53,1.291-9.409-3.911l-2.945-17.394c-3.921-23.122-25.656-39.312-49.62-35.238l-50.289,8.54    c-11.332,1.922-21.238,8.147-27.894,17.518c-6.646,9.372-9.257,20.789-7.344,32.121l8.54,50.28    c1.721,10.146,6.914,18.857,14.2,25.159c3.997,3.452,4.37,7.89,0.048,10.93L8.439,339.983c-5.518,3.92-8.587,9.505-8.434,15.338    c0.038,1.281,0.258,2.544,0.622,3.768c0.603,2.027,3.002,7.535,4.867,12.479l4.552,12.097    c4.973,13.205,20.129,30.256,34.511,38.871l140.999,84.179c6.455,3.863,14.258,5.9,22.567,5.9    c11.322,0,22.262-3.845,29.998-10.558l293.387-254.343c13.015-11.284,23.074-30.983,22.893-44.858l-0.134-11.265    c-0.066-5.278,0.249-10.92,0.316-12.623c0.038-1.023-0.029-2.046-0.269-3.06C553.043,170.402,548.415,166.185,541.635,164.32z     M318.465,64.325L358.59,52.63c2.429-0.708,4.934-1.081,7.439-1.081c11.724,0,22.214,7.879,25.503,19.164l11.704,40.114    c4.103,14.086-4.016,28.86-18.082,32.943l-40.124,11.714c-0.66,0.182-1.272,0.526-1.789,0.975l-15.5,13.292    c-4.007,3.433-8.167,2.046-9.295-3.117l-6.369-29.204l-11.704-40.153C296.28,83.201,304.398,68.427,318.465,64.325z     M191.026,261.762c-1.243-5.135,1.271-11.724,5.623-14.726l104.738-72.302c4.351-3.002,8.31-3.414,8.845-0.927l0.985,4.504    c1.033,4.762,4.456,7.86,8.692,7.86c2.323,0,4.638-0.957,6.685-2.726l9.409-8.119c3.997-3.452,11.341-5.001,16.39-3.471    l120.287,36.519c0.383,0.115,0.688,0.239,0.928,0.363c0.487,0.249,0.66,1.042,0.315,1.463c-0.172,0.21-0.392,0.44-0.698,0.698    L240.483,413.318c-2.582,2.218-7.879,2.82-10.901,1.195L78.322,332.333c-1.167-0.631-1.606-1.291-1.626-1.664    c-0.019-0.373,0.344-1.062,1.425-1.807l41.941-28.956c4.351-3.002,12.087-6.148,17.298-7.037l2.955-0.507    c5.202-0.89,13.56-0.498,18.666,0.86l25.388,6.779c1.205,0.315,2.4,0.488,3.538,0.488c3.166,0,5.891-1.253,7.688-3.529    c1.941-2.467,2.534-5.842,1.645-9.523L191.026,261.762z M306.158,155.102c0.794,3.653-2.085,9.056-6.426,12.049l-104.891,72.417    c-4.351,3.002-8.09,4.533-8.358,3.414l-0.487-2.018c0,0-0.297-1.74-0.66-3.892c-0.363-2.151,2.84-6.359,7.153-9.409    l104.413-73.669C301.215,150.952,305.364,151.439,306.158,155.102z M51.748,212.018c-1.492-8.816,0.535-17.69,5.708-24.968    c5.173-7.306,12.881-12.144,21.707-13.636l50.289-8.54c18.513-3.175,35.544,9.41,38.585,27.416l8.597,50.596l11.312,46.789    c0.057,0.239,0.096,0.439,0.115,0.612c0.048,0.344-0.22,0.659-0.583,0.611c-0.172-0.028-0.382-0.066-0.631-0.144l-27.406-7.306    c-5.106-1.357-13.464-1.75-18.666-0.86l-41.894,7.105c-18.57,3.213-35.543-9.41-38.584-27.397L51.748,212.018z M228.74,491.214    c-5.04,4.352-12.785,6.952-20.712,6.952c-5.67,0-11.035-1.349-15.128-3.787L51.901,410.2c-8.491-5.067-17.757-14.21-23.591-22.759    c-2.983-4.36-0.985-6.091,3.491-3.289l157.733,98.589c4.341,2.707,9.582,4.15,15.156,4.15c7.421,0,14.564-2.582,19.613-7.076    L532.876,205.4c3.949-3.509,7.152-5.46,7.172-4.37l0.019,1.989c0.125,9.639-8.262,25.436-17.948,33.841L228.74,491.214z     M539.856,179.429c-0.096,0.21-0.325,0.736-0.67,1.1c-0.191,0.201-0.401,0.402-0.659,0.631L214.77,469.087    c-2.295,2.056-6.216,3.309-10.242,3.309c-2.888,0-5.518-0.632-7.392-1.808L16.893,357.941c-0.344-0.21-0.65-0.439-0.928-0.66    c-0.487-0.401-0.927-1.08-1.061-1.434l-0.239-0.641c-0.344-1.234,0.545-2.43,2.056-3.51l66.029-46.599    c4.313-3.04,10.031-5.345,12.775-5.46c1.635-0.066,3.28-0.22,4.944-0.497c0,0,2.4-0.401,5.365-0.908    c2.964-0.497,1.846,1.53-2.505,4.522l-29.28,20.216c-3.031,2.094-4.676,5.039-4.523,8.09c0.172,3.06,2.123,5.823,5.365,7.583    l151.269,82.18c2.238,1.215,4.925,1.846,7.765,1.846c4.274,0,8.376-1.415,11.265-3.921L477.93,216.331    c2.83-2.448,4.103-5.546,3.471-8.463c-0.611-2.936-3.031-5.25-6.627-6.331l-115.046-34.932c-5.049-1.53-5.04-3.978,0.028-5.451    l13.139-3.825c5.068-1.472,13.283-1.463,18.351,0.029l52.221,15.396c0.345,0.096,0.68,0.153,1.014,0.153    c1.55,0,2.983-1.004,3.434-2.582c0.555-1.903-0.526-3.882-2.42-4.446l-42.639-12.575c-5.068-1.491-6.13-4.121-2.897-6.617    c3.231-2.505,9.447-3.968,14.544-2.562l123.318,34.042c0.487,0.134,0.899,0.277,1.224,0.411    C539.713,178.836,539.952,179.218,539.856,179.429z" fill="#FFFFFF"/>
		<path d="M364.681,117.731l-8.778-30.112c-1.482-5.068-1.788-8.778-0.688-8.281l1.989,0.899c1.396,0.631,2.83,0.784,4.121,0.392    c2.448-0.708,4.055-3.155,4.198-6.407c0.124-2.878-0.708-5.135-2.362-6.856c-1.625-1.721-3.844-2.668-6.292-2.668h-10.682    c-0.822,0-1.625,0.134-2.361,0.335c-3.777,1.1-5.595,4.686-4.438,8.721l7.296,24.978c1.482,5.068,1.578,9.199,0.23,9.409    c-0.813,0.134-1.616,0.306-2.42,0.536c-8.932,2.61-14.392,10.892-12.163,18.475c2.209,7.564,11.265,11.638,20.177,9.037    C361.43,133.577,366.88,125.295,364.681,117.731z M345.154,110.961c1.874-0.564,3.806-0.784,5.709-0.669    c0.411,0,0.765-0.163,0.994-0.469c0.229-0.277,0.306-0.669,0.201-1.042l-10.395-35.668c-0.804-2.745,0.334-5.078,2.82-5.814    c0.526-0.153,1.091-0.22,1.702-0.22h10.691c1.778-0.02,3.414,0.669,4.59,1.922c1.186,1.253,1.798,2.917,1.712,4.667    c-0.125,2.687-1.052,4.293-2.516,4.705c-0.765,0.229-1.606,0.115-2.505-0.277l-6.282-2.85c-0.411-0.191-0.918-0.134-1.263,0.172    c-0.354,0.296-0.487,0.765-0.354,1.214l12.163,41.759c1.826,6.331-2.907,13.302-10.576,15.539    c-7.669,2.219-15.414-1.1-17.279-7.43C332.742,120.141,337.485,113.199,345.154,110.961z" fill="#FFFFFF"/>
	</g>
</g>
<g>
</g>
<g>
</g>
<g>
</g>
<g>
</g>
<g>
</g>
<g>
</g>
<g>
</g>
<g>
</g>
<g>
</g>
<g>
</g>
<g>
</g>
<g>
</g>
<g>
</g>
<g>
</g>
<g>
</g>
</svg>
