<?xml version="1.0" encoding="iso-8859-1"?>
<!-- Generator: Adobe Illustrator 19.0.0, SVG Export Plug-In . SVG Version: 6.00 Build 0)  -->
<svg xmlns="http://www.w3.org/2000/svg" xmlns:xlink="http://www.w3.org/1999/xlink" version="1.1" id="Capa_1" x="0px" y="0px" viewBox="0 0 32.063 32.063" style="enable-background:new 0 0 32.063 32.063;" xml:space="preserve" width="512px" height="512px">
<path d="M16.031,0C7.177,0,0,7.177,0,16.031c0,8.854,7.177,16.031,16.031,16.031c8.854,0,16.031-7.177,16.031-16.031  C32.063,7.177,24.885,0,16.031,0z M16.031,29.063c-7.18,0-13-5.827-13-13.016c0-7.188,5.82-13.016,13-13.016  c7.18,0,13,5.827,13,13.016C29.031,23.235,23.211,29.063,16.031,29.063z M16.047,6.031c-0.016,0-0.031,0.002-0.047,0.002v20.058  c0.016,0,0.031,0.002,0.047,0.002c5.531,0,10.016-4.491,10.016-10.031C26.063,10.522,21.578,6.031,16.047,6.031z" fill="#FFFFFF"/>
<g>
</g>
<g>
</g>
<g>
</g>
<g>
</g>
<g>
</g>
<g>
</g>
<g>
</g>
<g>
</g>
<g>
</g>
<g>
</g>
<g>
</g>
<g>
</g>
<g>
</g>
<g>
</g>
<g>
</g>
</svg>
