<?xml version="1.0" encoding="utf-8"?>
<!DOCTYPE svg PUBLIC "-//W3C//DTD SVG 1.1//EN" "http://www.w3.org/Graphics/SVG/1.1/DTD/svg11.dtd">
<svg xmlns="http://www.w3.org/2000/svg" xmlns:xlink="http://www.w3.org/1999/xlink" width="512px" version="1.1" height="512px" viewBox="0 0 64 64" enable-background="new 0 0 64 64">
  <g>
    <path fill="#FFFFFF" d="m.022,32.384c0.017,0.087 0.064,0.164 0.095,0.247 0.048,0.15 0.079,0.305 0.167,0.444 0.484,0.77 12.067,18.869 29.97,19.793 0.472,0.023 0.942,0.036 1.414,0.036 10.969,0 21.706-6.606 31.931-19.657 0.047-0.061 0.06-0.133 0.099-0.197 0.056-0.089 0.097-0.179 0.139-0.275 0.059-0.142 0.111-0.277 0.137-0.426 0.024-0.121 0.025-0.24 0.026-0.365-0.001-0.125-0.002-0.244-0.026-0.365-0.026-0.149-0.078-0.285-0.137-0.427-0.042-0.096-0.083-0.186-0.139-0.275-0.039-0.063-0.051-0.136-0.099-0.197-10.664-13.611-21.887-20.195-33.345-19.621-17.903,0.924-29.486,19.023-29.97,19.793-0.088,0.14-0.119,0.294-0.167,0.443-0.031,0.083-0.078,0.161-0.095,0.247-0.027,0.134-0.014,0.266-0.013,0.401-0.001,0.136-0.014,0.267 0.013,0.401zm31.98-15.067c6.985,0 12.667,5.683 12.667,12.668 0,6.985-5.682,12.667-12.667,12.667-6.986,0-12.667-5.682-12.667-12.667 0-6.985 5.682-12.668 12.667-12.668zm-11.495,.548c-3.215,3.05-5.232,7.35-5.232,12.121 0,9.223 7.505,16.728 16.728,16.728 9.222,0 16.727-7.505 16.727-16.728 0-4.426-1.739-8.444-4.556-11.438 5.116,2.784 10.207,7.271 15.224,13.437-9.479,11.65-19.213,17.332-28.914,16.83-13.487-0.686-23.357-13.109-26.023-16.832 1.951-2.726 7.769-10.078 16.046-14.118z"/>
  </g>
</svg>
