<?xml version="1.0" encoding="iso-8859-1"?>
<!-- Generator: Adobe Illustrator 19.0.0, SVG Export Plug-In . SVG Version: 6.00 Build 0)  -->
<svg xmlns="http://www.w3.org/2000/svg" xmlns:xlink="http://www.w3.org/1999/xlink" version="1.1" id="Capa_1" x="0px" y="0px" viewBox="0 0 490 490" style="enable-background:new 0 0 490 490;" xml:space="preserve" width="512px" height="512px">
<g>
	<path d="M111.868,195.322l-12.95,37.601c-3.619,10.998-6.819,22.55-9.331,32.719h-0.419c-2.363-10.438-5.279-21.578-8.628-32.584   l-12.247-37.735H45.728l-6.265,93.856h16.015l2.093-37.743c0.688-12.808,1.241-27.709,1.66-39.964h0.284   c2.512,11.701,5.847,24.509,9.466,36.487l12.531,40.098h13.234l13.653-40.659c4.172-11.836,8.075-24.509,11.14-35.926h0.419   c-0.15,12.673,0.553,27.298,1.107,39.41l1.809,38.296h16.718l-5.443-93.856H111.868z" fill="#FFFFFF"/>
	<path d="M234.458,195.329l-30.072,93.849h17.675l8.075-26.603h29.803l8.494,26.603h18.393l-30.505-93.849H234.458z    M232.932,249.633l7.238-23.111c1.675-5.57,3.065-12.12,4.456-17.548h0.284c1.391,5.428,2.916,11.836,4.725,17.548l7.387,23.111   H232.932z" fill="#FFFFFF"/>
	<path d="M389.093,253.82c2.228,0.419,5.159,0.553,8.359,0.553c12.112,0,22.834-3.2,29.668-10.026   c5.294-5.017,8.075-12.397,8.075-21.309c0-8.77-3.619-16.15-9.197-20.748c-5.981-5.009-15.178-7.656-27.709-7.656   c-11.559,0-20.053,0.83-26.184,1.944v92.6h16.987V253.82z M389.093,208.556c1.809-0.419,5.159-0.837,9.884-0.837   c11.843,0,19.081,5.57,19.081,16.015c0,11.006-7.791,17.271-20.606,17.271c-3.484,0-6.266-0.142-8.359-0.695V208.556z" fill="#FFFFFF"/>
	<path d="M326.664,105.585L178.666,10.177V8.641h-2.383l-13.403-8.64L0,82.979V490L163.333,388.18L326.666,490L490,391.949V0.001   L326.669,105.585H326.664z M30.625,434.821V101.748L148.041,41.93v319.696l-0.908,0.566L30.625,434.821z M178.666,361.651V46.615   l131.408,84.712l2.487,1.604v312.188l-133.026-82.926L178.666,361.651z M459.375,56.264v318.349l-116.19,69.75V131.375l0.108-0.069   L459.375,56.264z" fill="#FFFFFF"/>
</g>
<g>
</g>
<g>
</g>
<g>
</g>
<g>
</g>
<g>
</g>
<g>
</g>
<g>
</g>
<g>
</g>
<g>
</g>
<g>
</g>
<g>
</g>
<g>
</g>
<g>
</g>
<g>
</g>
<g>
</g>
</svg>
