<svg width="100" height="100" xmlns="http://www.w3.org/2000/svg" preserveAspectRatio="xMidYMid meet">
 <title>isoline</title>
 <defs>
  <marker id="se_marker_start_svg_4" markerUnits="strokeWidth" orient="auto" viewBox="0 0 100 100" markerWidth="5" markerHeight="5" refX="50" refY="50">
   <circle id="svg_1" r="30" cx="50" cy="50" fill="none" stroke-width="10"/>
  </marker>
  <marker id="se_marker_end_svg_4" markerUnits="strokeWidth" orient="auto" viewBox="0 0 100 100" markerWidth="5" markerHeight="5" refX="50" refY="50">
   <circle id="svg_2" r="30" cx="50" cy="50" fill="none" stroke-width="10"/>
  </marker>
 </defs>
 <g>
  <title>background</title>
  <rect x="-1" y="-1" width="102" height="102" id="canvas_background" fill="none"/>
 </g>
 <g>
  <title>Layer 1</title>
  <g id="svg_3">
   <g id="svg_5">
    <path d="m41.737202,3.312618c-1.12064,0.175494 -1.169365,0.214498 -1.006954,0.585015c0.146172,0.312018 0.2761,0.370516 0.682129,0.273014c1.266811,-0.312019 4.937309,-0.331512 8.201782,-0.039005c4.320141,0.39001 9.939583,1.540564 12.521919,2.574104c2.208801,0.897033 4.661217,2.574086 7.162354,4.91418c0.584679,0.54601 1.380493,1.287044 1.754044,1.638049c1.234322,1.131042 3.589287,4.797184 4.644974,7.273767c0.406021,0.955549 0.9095,2.964113 0.9095,3.627138c0,0.195004 0.308578,1.209051 0.698372,2.262085c0.503471,1.42355 0.893265,2.164585 1.494186,2.905596c0.860779,1.053053 2.988365,2.886124 4.466309,3.841656c0.487236,0.312 1.071922,0.780022 1.299294,1.01403c0.227379,0.253517 1.071922,0.936035 1.900215,1.540562c1.006958,0.741032 2.030151,1.755062 3.24823,3.198124c1.689087,2.008564 1.819016,2.242573 3.475616,5.791702c1.705315,3.646648 1.948936,4.34866 2.679779,7.897804c0.454758,2.164566 0.406036,7.098255 -0.0812,10.140362c-0.422279,2.613113 -1.542908,7.020271 -1.965187,7.702782c-0.194901,0.331512 -1.234322,2.827606 -2.111343,5.070198c-0.470993,1.209038 -1.315529,2.905602 -1.932693,3.900139c-0.600922,0.955528 -1.770294,2.886101 -2.61483,4.290161c-1.526665,2.535095 -2.939644,4.387657 -3.962845,5.226196c-0.308586,0.234009 -1.266808,1.033539 -2.160065,1.794067c-1.948944,1.657555 -1.916458,1.638046 -3.62178,2.652092c-5.278374,3.120117 -11.904755,4.153656 -26.473076,4.173149c-6.204117,0 -8.201778,-0.058502 -10.231922,-0.331512c-1.380501,-0.175514 -3.540573,-0.429016 -4.791138,-0.565521c-2.79348,-0.27301 -5.944263,-1.150536 -10.637955,-2.944603c-1.380497,-0.52652 -5.570715,-3.042107 -7.22731,-4.329163c-0.714613,-0.546013 -1.477945,-1.111534 -1.705322,-1.248039c-1.526668,-0.91655 -4.287663,-4.036659 -5.002274,-5.65522c-1.477943,-3.33461 -2.290002,-7.663773 -2.306243,-12.343948c0,-1.911072 -0.357306,-4.972694 -0.71461,-6.162228c-0.129929,-0.448513 -0.974469,-2.593597 -1.867733,-4.777679c-2.160073,-5.284698 -2.97213,-8.229298 -3.329435,-12.090443c-0.146171,-1.560059 -0.259859,-3.588135 -0.259859,-4.485168c0,-1.443043 0.503476,-6.610744 0.747093,-7.663776c0.56844,-2.476601 1.169363,-4.251158 2.387449,-7.215271c2.712272,-6.532736 3.621777,-7.800285 9.939582,-13.943011c1.624116,-1.579568 3.702985,-3.120113 6.252845,-4.660677c3.508089,-2.106068 4.222698,-2.43758 6.593906,-3.139607c1.136881,-0.331512 2.403692,-0.760527 2.809719,-0.955549c0.42227,-0.214499 1.08816,-0.507006 1.526667,-0.702011c0.730854,-0.312018 0.925743,-0.546028 0.617165,-0.760544c-0.064964,-0.058498 -0.860779,0.195023 -1.737801,0.565521l-3.556814,1.26755c-3.053337,0.87754 -7.259792,3.256621 -10.75164,6.064734c-1.867733,1.501559 -2.322484,1.911062 -4.758657,4.348659c-3.670499,3.646631 -4.937308,5.616211 -7.276034,11.232418c-2.306244,5.499195 -2.728513,7.117752 -3.215748,12.090446c-0.276099,2.92511 -0.243617,5.557693 0.113688,8.970333c0.308582,3.042103 1.997662,8.541298 3.962841,12.870464c0.406028,0.916542 0.893262,2.184078 1.088156,2.827606c0.422271,1.540569 0.779575,4.290165 0.779575,6.259739c0,4.621658 0.877023,9.26284 2.436172,12.870468c0.487234,1.150536 0.763333,1.540565 2.436172,3.373611c2.176314,2.418091 8.60781,6.72776 12.343274,8.307312c0.941988,0.39003 3.10206,1.131042 4.79114,1.657562c2.452412,0.741028 3.556808,0.975044 5.440781,1.150551c1.299294,0.136505 3.378162,0.370499 4.628727,0.546013c1.819016,0.253525 3.80043,0.312019 9.825897,0.312019c9.484833,-0.019501 15.591511,-0.487534 20.756191,-1.618561c1.039429,-0.214508 4.060287,-1.228539 4.661217,-1.560051c3.280701,-1.755081 4.206444,-2.418083 7.617088,-5.460213c1.689079,-1.501556 2.647308,-2.691101 4.07653,-5.05069c0.53595,-0.897026 1.656601,-2.730103 2.484894,-4.075638c0.828308,-1.365059 1.770287,-3.120117 2.095108,-3.939163c0.308586,-0.79953 1.104401,-2.788597 1.770294,-4.387642c0.649651,-1.618568 1.412964,-3.763649 1.689072,-4.777695c0.714607,-2.613091 1.283051,-6.493732 1.396751,-9.45784c0.097443,-2.262089 0.064957,-2.808098 -0.308586,-4.972679c-0.243622,-1.345558 -0.568443,-2.964115 -0.730858,-3.607643c-0.324829,-1.209034 -1.380493,-3.880642 -1.737801,-4.387646c-0.113693,-0.156017 -0.438522,-0.819046 -0.730858,-1.462559c-1.201836,-2.613106 -2.013893,-3.841652 -4.044037,-6.103733c-1.136879,-1.248043 -2.354965,-2.457092 -2.696037,-2.671593c-0.357307,-0.214516 -1.00695,-0.702026 -1.4617,-1.092037c-0.438515,-0.390026 -1.201851,-0.955551 -1.656601,-1.228546c-1.153114,-0.682531 -3.378151,-2.632601 -4.222694,-3.666142c-0.925751,-1.131042 -1.770294,-3.295626 -2.33873,-5.967215c-0.454758,-2.203585 -0.941986,-3.432131 -2.06263,-5.401709c-0.568436,-0.975025 -0.828293,-1.365053 -2.062614,-3.120114c-0.665894,-0.955531 -4.742416,-4.719175 -6.577675,-6.064716c-0.925743,-0.682536 -2.809715,-1.716075 -4.303898,-2.379099c-1.03944,-0.448507 -6.788799,-1.73555 -9.825897,-2.164565c-1.689079,-0.253521 -6.772556,-0.604526 -8.153053,-0.585032c-0.568443,0.019511 -1.559158,0.117013 -2.192558,0.214516z" id="svg_4" fill="#000000" marker-start="url(#se_marker_start_svg_4)" marker-end="url(#se_marker_end_svg_4)" stroke-linecap="round" stroke-width="3"/>
    <path d="m39.82074,17.333637c-3.573048,0.234009 -7.698296,1.42355 -10.199436,2.925091c-1.348013,0.79953 -3.215748,2.106085 -3.361919,2.320602c-0.048723,0.058498 -0.373545,0.331511 -0.730852,0.585012c-1.29929,0.916529 -3.134541,2.944605 -4.791138,5.265205c-2.176313,3.02261 -2.468655,3.588114 -4.336388,8.190294c-1.85149,4.602161 -1.737802,4.290161 -2.143831,5.85022c-1.055674,4.036636 -1.477944,7.05925 -1.477944,10.432884c0,3.45163 0.860782,11.583427 1.299293,12.285454c0.064964,0.097504 0.341063,0.858025 0.617164,1.657555c2.67979,7.839294 3.313195,9.282349 5.018514,11.407913c1.055676,1.306557 2.387451,2.769112 2.907167,3.217628c0.194895,0.156006 1.136881,1.033531 2.111351,1.911064c2.452412,2.262093 6.740076,4.816681 9.728447,5.791725c2.046383,0.663025 5.716885,1.482048 9.74469,2.164581c2.452412,0.409508 7.113625,0.448509 11.693623,0.116997c4.774902,-0.350998 6.334053,-0.565521 8.932636,-1.248055c1.250572,-0.312004 2.972137,-0.741013 3.816673,-0.93602c2.127579,-0.487534 2.825951,-0.79953 5.48951,-2.476601c4.287659,-2.671593 6.236595,-4.524155 9.078796,-8.638824c1.542908,-2.242569 1.997665,-3.061615 2.744766,-4.972679c2.452408,-6.220711 2.890915,-11.485916 1.510422,-18.038162c-0.649643,-3.100605 -1.445465,-4.933678 -3.215752,-7.429771c-1.770287,-2.515587 -2.988373,-3.666138 -6.853767,-6.415737c-1.64035,-1.189545 -3.751701,-2.691101 -4.677452,-3.354126c-0.974464,-0.721519 -2.225037,-1.833069 -2.955887,-2.652096c-1.315529,-1.501556 -1.266815,-1.404053 -3.296951,-6.474236c-0.487236,-1.228544 -1.136879,-2.593597 -1.429222,-3.022612c-2.24128,-3.276131 -5.27837,-5.752716 -8.575333,-7.000771c-2.663544,-1.01403 -6.090424,-1.521055 -6.090424,-0.897017c0,0.214499 0.211136,0.312 0.730846,0.351006c2.793484,0.195005 5.814339,1.150536 7.958168,2.515589c4.011562,2.574102 5.895542,5.089691 7.79575,10.393881c0.292343,0.79953 0.779572,1.969578 1.08815,2.574104c0.665886,1.32605 2.403694,3.295624 3.540573,3.997635c0.454765,0.273014 1.250572,0.877541 1.78653,1.326069c0.535957,0.448505 1.526665,1.189537 2.192558,1.638046c4.044044,2.730103 5.684395,4.075665 7.243553,5.94772c2.062622,2.496094 2.793472,3.763645 3.475601,6.142727c1.023186,3.471138 1.380501,5.889221 1.364258,9.282352c0,3.256618 -0.341072,5.343189 -1.429214,8.775318c-0.958237,3.042114 -1.412987,3.919655 -3.702988,7.195763c-2.87468,4.134171 -3.88163,5.070183 -8.445396,7.897797c-2.760994,1.716064 -3.020851,1.833061 -5.846817,2.6716c-1.64035,0.487511 -3.735458,1.053032 -4.677452,1.267548c-4.628727,1.033524 -15.786388,1.365051 -19.976612,0.60453c-5.976742,-1.092056 -9.64724,-2.028091 -11.173912,-2.866615c-3.654259,-2.028076 -5.928019,-3.588127 -7.909439,-5.421204c-4.54752,-4.251152 -6.122911,-6.591255 -7.633337,-11.329918c-0.194895,-0.663025 -0.763336,-2.34008 -1.26681,-3.72464c-1.169364,-3.315121 -1.331775,-4.095158 -1.83525,-9.067833c-0.341063,-3.373619 -0.389789,-4.602165 -0.308582,-6.337734c0.243617,-4.582668 1.26681,-8.970333 3.280712,-14.040512c1.721563,-4.329163 2.67979,-6.318237 3.702984,-7.62479c0.081203,-0.116997 0.568439,-0.760525 1.055672,-1.443043c1.412979,-1.989092 3.020857,-3.783157 4.141493,-4.660679c0.357307,-0.273014 0.682129,-0.546028 0.730852,-0.62402c0.2761,-0.390028 4.303905,-2.94462 5.440788,-3.432133c2.69603,-1.170046 6.642628,-1.969578 10.037029,-2.047569c1.412979,-0.01951 2.598583,-0.097502 2.647308,-0.17551c0.113689,-0.234011 -1.055679,-0.565521 -1.802769,-0.526518c-0.357307,0 -1.591633,0.077991 -2.761002,0.175512z" id="svg_7" fill="#000000" stroke-width="3"/>
    <path d="m43.475002,30.96463c-0.9095,0.331511 -4.076527,1.950081 -5.700642,2.905613c-1.542908,0.897034 -1.883972,1.209034 -3.573051,3.198109c-1.477947,1.716072 -2.06263,2.5741 -2.777237,4.036655c-2.192556,4.485168 -3.345678,7.93679 -3.491846,10.432888c-0.162415,2.905598 0.406027,6.571739 1.412977,9.106842c1.607874,4.017143 5.48951,8.521805 9.338657,10.842384c1.672844,0.994537 3.540573,1.71608 8.201786,3.159119c0.308578,0.097504 1.201839,0.273018 1.981419,0.370522c0.779572,0.116997 1.721565,0.312012 2.111351,0.429008c0.487232,0.175514 2.111351,0.253502 5.245892,0.253502c4.092766,0 4.742416,-0.038979 6.415253,-0.448502c3.654255,-0.858032 4.807377,-1.248039 6.399014,-2.106087c3.751709,-2.067062 6.074188,-4.797173 6.77256,-7.995293c0.487236,-2.242588 0.584686,-5.011684 0.243614,-6.532734c-0.503479,-2.164581 -0.747093,-2.92511 -1.299294,-3.939152c-0.292336,-0.546013 -0.763336,-1.443047 -1.039429,-1.969563c-1.250572,-2.418102 -4.921066,-5.772228 -8.104332,-7.410275c-2.744759,-1.404057 -3.605541,-2.437599 -4.693695,-5.557713c-0.665886,-1.930573 -1.055679,-2.437595 -3.63802,-4.699684c-1.835247,-1.599041 -2.387444,-1.969559 -2.760994,-1.83305c-0.503475,0.195004 -0.406029,0.351002 0.535957,0.93602c2.143829,1.345558 4.628727,3.822144 5.067238,5.050686c0.877022,2.535099 1.315533,3.393127 2.338726,4.621674c0.779583,0.955551 1.266815,1.384563 1.770287,1.560059c3.102051,1.072544 8.104332,5.440697 9.208733,8.034309c0.162407,0.370502 0.503471,1.053036 0.779579,1.521053c0.584671,1.033524 1.36425,3.900131 1.510422,5.557697c0.194893,2.340088 -0.73085,5.908726 -2.095116,7.975788c-1.039429,1.59906 -4.109009,3.880669 -6.447731,4.797188c-1.331772,0.52652 -5.863056,1.482048 -8.282982,1.774559c-2.127594,0.234009 -6.382774,0 -8.607815,-0.468002c-0.763332,-0.156013 -2.078861,-0.429031 -2.907166,-0.604523c-2.744751,-0.565521 -6.95121,-2.145096 -8.900146,-3.334633c-3.345676,-2.028076 -6.951214,-6.259743 -8.47788,-9.945374c-1.234329,-3.003101 -1.819006,-6.96175 -1.477945,-9.925865c0.341064,-2.749596 3.053335,-9.36034 4.872345,-11.875931c0.812057,-1.111549 2.176315,-2.652096 2.338726,-2.652096c0.064968,0 0.45475,-0.292507 0.877022,-0.643528c1.364258,-1.111534 3.524326,-2.340076 6.528942,-3.685638c0.974468,-0.448507 3.378159,-0.585014 5.002277,-0.292505c0.990707,0.175512 1.153114,-0.117014 0.276096,-0.565519c-0.617161,-0.292509 -4.206459,-0.37052 -4.953552,-0.078011z" id="svg_10" fill="#000000" stroke-width="3"/>
    <path d="m48.022526,41.690022c-3.085819,0.253521 -5.668159,1.384563 -7.146107,3.139629c-0.470989,0.565517 -0.665886,1.014027 -0.941986,2.262081c-0.422268,1.833054 -0.438511,2.632587 -0.097446,4.348663c0.243618,1.287041 0.990711,2.866592 1.916454,4.056149c1.591637,2.047573 6.740078,4.894672 9.972069,5.499195c2.468651,0.487514 5.457027,0.078011 7.178589,-0.97504c1.64035,-0.994537 2.728512,-2.691101 3.085812,-4.816677c0.243622,-1.365055 0.129932,-2.320583 -0.470989,-3.724644c-0.617165,-1.482048 -1.705318,-2.652092 -3.686741,-3.997635c-1.67284,-1.131042 -2.127586,-1.618557 -2.582344,-2.652092c-0.276096,-0.663025 -0.73085,-0.819042 -0.73085,-0.273018c0,0.195007 0.259857,0.780037 0.568439,1.326046c0.45475,0.819027 0.877018,1.209053 2.371208,2.223083c2.160072,1.482067 2.809715,2.203587 3.540569,3.997654c0.487232,1.209034 0.535961,1.462555 0.470997,2.554592c-0.162411,2.301071 -1.461704,4.251156 -3.44313,5.14819c-1.429211,0.643532 -3.897873,0.916527 -5.668156,0.643532c-1.835251,-0.29253 -4.70993,-1.326065 -6.269081,-2.281593c-2.533623,-1.521057 -3.979084,-2.886108 -5.002277,-4.680176c-1.315536,-2.320583 -1.29929,-6.279232 0,-7.93679c1.234329,-1.560055 2.338726,-2.184078 5.148445,-2.964115c1.234325,-0.331509 4.222694,-0.487511 5.002274,-0.253502c0.357304,0.116993 0.519718,0.097504 0.519718,-0.058498c0,-0.292507 -1.023193,-0.780037 -1.57539,-0.741032c-0.243618,0 -1.21809,0.078011 -2.160076,0.155998z" id="svg_13" fill="#000000" stroke-width="3"/>
   </g>
   <path id="svg_6" d="m33.753288,3.484439" opacity="0.5" stroke-opacity="null" stroke-width="3" stroke="null" fill="#000000"/>
  </g>
 </g>
</svg>