<svg width="593" height="510" xmlns="http://www.w3.org/2000/svg" preserveAspectRatio="xMidYMid meet">
 <title>isoline</title>
 <defs>
  <marker refY="50" refX="50" markerHeight="5" markerWidth="5" viewBox="0 0 100 100" orient="auto" markerUnits="strokeWidth" id="se_marker_start_svg_4">
   <circle stroke-width="10" fill="none" cy="50" cx="50" r="30" id="svg_1"/>
  </marker>
  <marker refY="50" refX="50" markerHeight="5" markerWidth="5" viewBox="0 0 100 100" orient="auto" markerUnits="strokeWidth" id="se_marker_end_svg_4">
   <circle stroke-width="10" fill="none" cy="50" cx="50" r="30" id="svg_2"/>
  </marker>
 </defs>
 <g>
  <title>background</title>
  <rect fill="none" id="canvas_background" height="512" width="595" y="-1" x="-1"/>
 </g>
 <g>
  <title>Layer 1</title>
  <path stroke-width="2" stroke-linecap="round" marker-end="url(#se_marker_end_svg_4)" marker-start="url(#se_marker_start_svg_4)" fill="#ffffff" id="svg_4" d="m247.300003,15.199992c-6.899994,0.900001 -7.199997,1.100001 -6.199997,3.000001c0.899994,1.6 1.699997,1.9 4.199997,1.4c7.800003,-1.6 30.400009,-1.700001 50.500015,-0.200001c26.599976,2 61.199982,7.900002 77.099976,13.200003c13.600006,4.599998 28.700012,13.199997 44.100006,25.199997c3.600006,2.800003 8.5,6.600002 10.800018,8.400005c7.599976,5.799995 22.099976,24.599998 28.599976,37.299995c2.5,4.900002 5.600006,15.200005 5.600006,18.599998c0,1 1.899994,6.199997 4.300018,11.600006c3.099976,7.300003 5.5,11.099991 9.199982,14.899994c5.300018,5.400009 18.399994,14.800003 27.5,19.699997c3,1.600006 6.600006,4 8,5.200012c1.400024,1.299988 6.600037,4.799988 11.700012,7.899994c6.200012,3.800003 12.5,9 20,16.399994c10.400024,10.300003 11.200012,11.500015 21.400024,29.700012c10.5,18.699997 12,22.300003 16.5,40.5c2.799988,11.100006 2.5,36.399994 -0.5,52c-2.600037,13.399994 -9.5,36 -12.100037,39.5c-1.200012,1.700012 -7.599976,14.5 -13,26c-2.899963,6.200012 -8.099976,14.899994 -11.899963,20c-3.700012,4.899994 -10.900024,14.799988 -16.100037,22c-9.399963,13 -18.100006,22.5 -24.399994,26.799988c-1.899994,1.200012 -7.799988,5.300018 -13.299988,9.200012c-12,8.5 -11.800018,8.399994 -22.300018,13.600006c-32.5,16 -73.299988,21.299988 -163,21.399994c-38.199982,0 -50.5,-0.299988 -63,-1.700012c-8.5,-0.899994 -21.800003,-2.199982 -29.5,-2.899994c-17.199997,-1.399994 -36.599991,-5.899994 -65.5,-15.100006c-8.5,-2.699982 -34.299995,-15.599976 -44.5,-22.199982c-4.400002,-2.800018 -9.099998,-5.700012 -10.5,-6.399994c-9.400002,-4.700012 -26.400002,-20.700012 -30.799999,-29c-9.099998,-17.100006 -14.099998,-39.300018 -14.200001,-63.300018c0,-9.799988 -2.200001,-25.5 -4.399998,-31.600006c-0.800003,-2.299988 -6,-13.299988 -11.500004,-24.5c-13.300001,-27.100006 -18.299998,-42.199982 -20.499999,-61.999985c-0.900002,-8 -1.6,-18.400009 -1.6,-23c0,-7.400009 3.1,-33.900009 4.6,-39.300003c3.499999,-12.700012 7.2,-21.800003 14.7,-37c16.700001,-33.500008 22.300003,-40.000008 61.200001,-71.500008c10,-8.099998 22.800003,-16 38.5,-23.899998c21.600006,-10.800003 26,-12.5 40.600006,-16.100002c7,-1.699999 14.800003,-3.9 17.300003,-4.9c2.599991,-1.1 6.699997,-2.6 9.399994,-3.6c4.5,-1.599997 5.699997,-2.799999 3.800003,-3.9c-0.400009,-0.299999 -5.300003,1 -10.699997,2.9l-21.900009,6.5c-18.800003,4.5 -44.699997,16.700001 -66.199997,31.100002c-11.5,7.700001 -14.300003,9.799999 -29.300003,22.299999c-22.599998,18.699997 -30.399998,28.800003 -44.799995,57.600006c-14.200002,28.199997 -16.800001,36.5 -19.800004,62c-1.7,15 -1.5,28.5 0.7,46c1.9,15.600006 12.300003,43.799988 24.400001,66c2.499998,4.700012 5.499998,11.200012 6.699999,14.5c2.599998,7.899994 4.799999,22 4.799999,32.100006c0,23.699982 5.400002,47.5 15,66c3,5.899994 4.700001,7.899994 15,17.299988c13.400002,12.399994 53,34.5 76,42.600006c5.800003,2 19.100006,5.799988 29.5,8.5c15.100006,3.799988 21.900009,5 33.5,5.899994c8,0.700012 20.800003,1.899994 28.5,2.800018c11.199997,1.299988 23.399994,1.599976 60.5,1.599976c58.399994,-0.099976 96,-2.5 127.800018,-8.299988c6.399994,-1.100006 25,-6.299988 28.699982,-8c20.200012,-9 25.899994,-12.399994 46.899994,-28c10.399994,-7.700012 16.300018,-13.799988 25.100006,-25.899994c3.299988,-4.600006 10.200012,-14 15.299988,-20.899994c5.100037,-7 10.900024,-16 12.900024,-20.200012c1.900024,-4.100006 6.799988,-14.299988 10.900024,-22.5c4,-8.299988 8.699951,-19.299988 10.399963,-24.5c4.400024,-13.399994 7.900024,-33.299988 8.600037,-48.5c0.599976,-11.600006 0.399963,-14.399994 -1.900024,-25.5c-1.5,-6.899994 -3.5,-15.199997 -4.5,-18.5c-2,-6.199997 -8.5,-19.900009 -10.700012,-22.5c-0.700012,-0.800003 -2.700012,-4.199997 -4.5,-7.5c-7.399963,-13.400009 -12.399963,-19.700012 -24.899963,-31.300003c-7,-6.400009 -14.5,-12.600006 -16.600037,-13.699997c-2.200012,-1.100006 -6.200012,-3.600006 -9,-5.600006c-2.699982,-2 -7.399994,-4.899994 -10.199982,-6.300003c-7.100006,-3.5 -20.800018,-13.5 -26,-18.800003c-5.700012,-5.799988 -10.900024,-16.899994 -14.400024,-30.599991c-2.799988,-11.300003 -5.799988,-17.600006 -12.699982,-27.700005c-3.5,-5 -5.100006,-7 -12.700012,-16c-4.100006,-4.900002 -29.199982,-24.200001 -40.5,-31.099998c-5.699982,-3.5 -17.299988,-8.800001 -26.5,-12.200001c-6.399994,-2.299997 -41.799988,-8.9 -60.5,-11.1c-10.399994,-1.3 -41.699982,-3.099998 -50.199982,-3c-3.5,0.099999 -9.600021,0.599999 -13.500015,1.099999z"/>
  <path stroke-width="2" fill="#ffffff" id="svg_7" d="m235.5,87.099991c-22,1.200005 -47.399994,7.300003 -62.800003,15c-8.299988,4.100006 -19.799988,10.800003 -20.699997,11.900002c-0.300003,0.300003 -2.300003,1.700005 -4.5,3c-8,4.700005 -19.300003,15.099998 -29.5,27.000008c-13.400002,15.5 -15.199997,18.399994 -26.699997,42c-11.400002,23.599991 -10.700005,22 -13.200005,30c-6.5,20.699997 -9.099998,36.199997 -9.099998,53.5c0,17.699982 5.300003,59.399994 8,63c0.400002,0.5 2.099998,4.399994 3.800003,8.5c16.5,40.200012 20.400002,47.600006 30.900002,58.5c6.5,6.700012 14.699997,14.200012 17.900002,16.5c1.199997,0.799988 7,5.299988 13,9.799988c15.099991,11.600006 41.5,24.700012 59.899994,29.700012c12.600006,3.399994 35.199997,7.600006 60,11.100006c15.100006,2.100006 43.800018,2.299988 72,0.600006c29.399994,-1.800018 39,-2.900024 55,-6.400024c7.700012,-1.599976 18.300018,-3.799988 23.5,-4.799988c13.100006,-2.5 17.399994,-4.100006 33.800018,-12.700012c26.399994,-13.699982 38.399994,-23.199982 55.899994,-44.299988c9.5,-11.5 12.299988,-15.700012 16.900024,-25.5c15.099976,-31.899994 17.799988,-58.899994 9.299988,-92.5c-4,-15.899994 -8.900024,-25.300003 -19.800018,-38.100006c-10.899994,-12.899994 -18.399994,-18.800003 -42.200012,-32.899994c-10.099976,-6.100006 -23.099976,-13.800003 -28.799988,-17.200012c-6,-3.699997 -13.700012,-9.399994 -18.200012,-13.599991c-8.099976,-7.699997 -7.799988,-7.199997 -20.299988,-33.199997c-3,-6.300003 -7,-13.300003 -8.799988,-15.5c-13.800018,-16.800003 -32.5,-29.500008 -52.800018,-35.900009c-16.399994,-5.199997 -37.5,-7.799995 -37.5,-4.599998c0,1.099998 1.300018,1.599998 4.5,1.800003c17.200012,1 35.800018,5.900002 49,12.900002c24.700012,13.199997 36.300018,26.099991 48,53.300003c1.800018,4.099991 4.800018,10.099991 6.700012,13.199997c4.100006,6.800003 14.799988,16.899994 21.799988,20.5c2.800018,1.399994 7.700012,4.5 11,6.800003c3.300018,2.299988 9.399994,6.099991 13.5,8.399994c24.899994,14 35,20.900009 44.600006,30.5c12.699982,12.800003 17.199982,19.299988 21.399994,31.5c6.299988,17.799988 8.5,30.200012 8.400024,47.600006c0,16.700012 -2.100037,27.399994 -8.799988,45c-5.900024,15.600006 -8.700043,20.100006 -22.800018,36.899994c-17.700012,21.200012 -23.900024,26 -52,40.5c-17,8.800018 -18.600006,9.399994 -36,13.700012c-10.100006,2.5 -23,5.399994 -28.800018,6.5c-28.5,5.299988 -97.199982,7 -123,3.100006c-36.800003,-5.600006 -59.399994,-10.400024 -68.800003,-14.700012c-22.5,-10.399994 -36.5,-18.399994 -48.699997,-27.799988c-28,-21.800018 -37.699997,-33.800018 -47,-58.100006c-1.199997,-3.399994 -4.699997,-12 -7.799995,-19.100006c-7.200005,-17 -8.200005,-21 -11.300003,-46.5c-2.099998,-17.300018 -2.400002,-23.600006 -1.900002,-32.5c1.5,-23.5 7.800003,-46 20.200005,-72c10.599998,-22.200012 16.5,-32.400009 22.799995,-39.100006c0.5,-0.600006 3.5,-3.899994 6.5,-7.399994c8.699997,-10.200012 18.600006,-19.400009 25.5,-23.900009c2.199997,-1.399994 4.199997,-2.799995 4.5,-3.199997c1.699997,-2 26.5,-15.099998 33.5,-17.599998c16.600006,-6 40.900009,-10.099998 61.800003,-10.5c8.699997,-0.099998 16.000015,-0.5 16.300003,-0.900002c0.700012,-1.199997 -6.5,-2.900002 -11.100006,-2.699997c-2.199997,0 -9.800003,0.399994 -17,0.899994z"/>
  <path stroke-width="2" fill="#ffffff" id="svg_10" d="m258,157c-5.599991,1.699997 -25.099991,10 -35.099991,14.899994c-9.5,4.600006 -11.600006,6.199997 -22,16.399994c-9.100006,8.800003 -12.700012,13.200012 -17.100006,20.700012c-13.5,23 -20.600006,40.699997 -21.5,53.5c-1,14.899994 2.5,33.699982 8.699997,46.700012c9.900009,20.599976 33.800003,43.699982 57.5,55.599976c10.300003,5.100006 21.800003,8.800018 50.5,16.200012c1.899994,0.5 7.399994,1.399994 12.200012,1.899994c4.799988,0.600006 10.600006,1.600006 13,2.200012c3,0.899994 13,1.299988 32.299988,1.299988c25.200012,0 29.200012,-0.199982 39.5,-2.299988c22.5,-4.399994 29.600006,-6.399994 39.399994,-10.800018c23.100006,-10.599976 37.400024,-24.599976 41.700012,-41c3,-11.5 3.600006,-25.699982 1.5,-33.5c-3.100006,-11.100006 -4.600006,-15 -8,-20.199982c-1.799988,-2.800018 -4.700012,-7.400024 -6.399994,-10.100006c-7.700012,-12.399994 -30.300018,-29.600006 -49.899994,-38c-16.900024,-7.199997 -22.200012,-12.5 -28.900024,-28.5c-4.099976,-9.900009 -6.5,-12.5 -22.399994,-24.100006c-11.299988,-8.199997 -14.699982,-10.100006 -17,-9.399994c-3.100006,1 -2.5,1.799988 3.300018,4.799988c13.199982,6.900009 28.5,19.600006 31.199982,25.900009c5.399994,13 8.100006,17.399994 14.399994,23.699997c4.800018,4.900009 7.800018,7.100006 10.900024,8c19.099976,5.5 49.899994,27.899994 56.699982,41.200012c1,1.899994 3.100006,5.399994 4.800018,7.799988c3.599976,5.299988 8.399994,20 9.299988,28.5c1.200012,12 -4.5,30.300018 -12.899994,40.899994c-6.399994,8.200012 -25.300018,19.900024 -39.700012,24.600006c-8.199982,2.700012 -36.100006,7.600006 -51,9.100006c-13.100006,1.200012 -39.299988,0 -53,-2.399994c-4.699982,-0.800018 -12.799988,-2.200012 -17.899994,-3.100006c-16.899994,-2.899994 -42.800003,-11 -54.800003,-17.100006c-20.600006,-10.399994 -42.800003,-32.100006 -52.199997,-51c-7.600006,-15.399994 -11.199997,-35.700012 -9.100006,-50.899994c2.100006,-14.100006 18.800003,-48 30,-60.900009c5,-5.699997 13.400009,-13.599991 14.400009,-13.599991c0.399994,0 2.799988,-1.5 5.399994,-3.300003c8.399994,-5.699997 21.699997,-12 40.199997,-18.900009c6,-2.299988 20.800018,-3 30.800018,-1.5c6.099976,0.900009 7.099976,-0.599991 1.699982,-2.899994c-3.799988,-1.5 -25.899994,-1.899994 -30.5,-0.399994z"/>
  <path stroke-width="4" fill="#fcfcfc" id="svg_13" d="m286,212c-19,1.300003 -34.899994,7.099991 -44,16.099991c-2.899994,2.900009 -4.099991,5.200012 -5.800003,11.600006c-2.599991,9.399994 -2.699997,13.5 -0.599991,22.300003c1.5,6.600006 6.099991,14.699982 11.800003,20.799988c9.800003,10.5 41.499985,25.100006 61.400009,28.200012c15.199982,2.5 33.599976,0.399994 44.199982,-5c10.100006,-5.100006 16.800018,-13.800018 19,-24.700012c1.5,-7 0.800018,-11.899994 -2.899994,-19.100006c-3.799988,-7.599991 -10.5,-13.599991 -22.700012,-20.499985c-10.299988,-5.800003 -13.099976,-8.300003 -15.899994,-13.600006c-1.699982,-3.399994 -4.5,-4.199997 -4.5,-1.399994c0,1 1.600006,4 3.5,6.800003c2.800018,4.199997 5.399994,6.199997 14.600006,11.399994c13.299988,7.600006 17.299988,11.299988 21.799988,20.5c3,6.200012 3.300018,7.5 2.900024,13.100006c-1,11.799988 -9,21.799988 -21.200012,26.399994c-8.799988,3.300018 -24,4.700012 -34.899994,3.300018c-11.300018,-1.5 -29,-6.800018 -38.600006,-11.700012c-15.600006,-7.800018 -24.5,-14.800018 -30.800003,-24c-8.100006,-11.899994 -8,-32.199997 0,-40.699997c7.600006,-8 14.400009,-11.200012 31.699997,-15.200012c7.600006,-1.699997 26,-2.5 30.800018,-1.299988c2.199982,0.599991 3.199982,0.5 3.199982,-0.300003c0,-1.5 -6.299988,-4 -9.699982,-3.800003c-1.5,0 -7.5,0.399994 -13.300018,0.800003z"/>
 </g>
</svg>