<?xml version="1.0" encoding="iso-8859-1"?>
<!-- Generator: Adobe Illustrator 19.0.0, SVG Export Plug-In . SVG Version: 6.00 Build 0)  -->
<svg xmlns="http://www.w3.org/2000/svg" xmlns:xlink="http://www.w3.org/1999/xlink" version="1.1" id="Capa_1" x="0px" y="0px" viewBox="0 0 489.9 489.9" style="enable-background:new 0 0 489.9 489.9;" xml:space="preserve" width="512px" height="512px">
<g>
	<path d="M419,330.3l9.5-170.2c35.2-8.9,61.4-40.9,61.4-78.8c0-44.8-36.5-81.3-81.3-81.3s-81.3,36.5-81.3,81.3   c0,37.6,25.7,69.3,60.4,78.6l-9.5,169.7c-1.7,0.4-3.3,0.8-5,1.3L272.6,205.2c6.9-12,10.9-25.8,10.9-40.6   c0-44.8-36.5-81.3-81.3-81.3s-81.3,36.5-81.3,81.3c0,25.2,11.5,47.8,29.6,62.7L95.6,328.5c-4.7-0.8-9.4-1.3-14.3-1.3   C36.5,327.2,0,363.7,0,408.5c0,44.8,36.4,81.4,81.2,81.4s81.3-36.5,81.3-81.3c0-25.1-11.4-47.5-29.3-62.4l55-101.4   c4.5,0.8,9.2,1.2,13.9,1.2c15,0,29-4.1,41-11.2l95.2,117.7c-14,14.6-22.6,34.4-22.6,56.1c0,44.8,36.5,81.3,81.3,81.3   s81.3-36.5,81.3-81.3C478.4,371.3,453.2,339.9,419,330.3z M81.2,449.2c-22.9,0-40.7-18.8-40.7-40.7c0-22.9,18.8-40.7,40.7-40.7   s39.6,18.8,40.7,40.7C121.9,431.5,103.1,449.2,81.2,449.2z M367.9,81.2c0-22.9,18.8-40.7,40.7-40.7c22.9,0,40.7,17.7,40.7,40.7   c0,22.9-18.8,40.7-40.7,40.7C385.6,121.9,367.9,104.2,367.9,81.2z M161.5,164.6c0-22.9,18.8-40.7,40.7-40.7s40.7,17.7,40.7,40.7   s-18.8,40.7-40.7,40.7C179.2,205.3,161.5,187.6,161.5,164.6z M397.1,449.2c-22.9,0-40.7-18.8-40.7-40.7c0-22.9,18.8-40.7,40.7-40.7   s40.7,18.8,40.7,40.7C437.8,431.5,419,449.2,397.1,449.2z" fill="#FFFFFF"/>
</g>
<g>
</g>
<g>
</g>
<g>
</g>
<g>
</g>
<g>
</g>
<g>
</g>
<g>
</g>
<g>
</g>
<g>
</g>
<g>
</g>
<g>
</g>
<g>
</g>
<g>
</g>
<g>
</g>
<g>
</g>
</svg>
