<?xml version="1.0" encoding="iso-8859-1"?>
<!-- Generator: Adobe Illustrator 19.0.0, SVG Export Plug-In . SVG Version: 6.00 Build 0)  -->
<svg xmlns="http://www.w3.org/2000/svg" xmlns:xlink="http://www.w3.org/1999/xlink" version="1.1" id="Layer_1" x="0px" y="0px" viewBox="0 0 488.852 488.852" style="enable-background:new 0 0 488.852 488.852;" xml:space="preserve" width="512px" height="512px">
<g>
	<g>
		<path d="M423.95,353.297l-67.9-228.9c29.1-18.8,38.6-59.4,19.5-90.9c-19.4-31.9-60-42.6-91-23.7c-28.2,17.2-38.4,52.4-25.5,82.7    l-166,143.8c-29.6-12.7-65-1.4-82.8,27.8c-19.5,32-10.4,72.8,20.7,91.8c28.1,17.2,66.1,9.6,86.8-17.5l240.2,82    c-0.3,37.4,28.6,67.7,65,68c36.4,0.3,65.7-29.7,65.9-67.1C489.15,383.897,460.25,353.497,423.95,353.297z M87.35,311.197    c-7.6,12.4-23.8,17.1-35.3,10.1s-14.8-23.6-7.2-36c7.6-12.4,23.8-17.1,35.3-10.1S94.05,298.197,87.35,311.197z M305.55,44.497    c11.5-7,27.8-2.3,35.3,10.1c7.6,12.4,4.3,29-7.3,36c-11.5,7-27.8,2.3-35.3-10.1C290.65,68.097,293.95,51.497,305.55,44.497z     M370.15,381.497l-238.1-81.3c0.7-12.7-2.1-25.2-8.2-36.1l161.2-140.3c9.7,6.3,20.8,10,32.1,10.8l68.6,231    C379.75,369.897,374.45,375.297,370.15,381.497z M423.25,448.897c-13.5-0.1-24.8-12.6-24.7-27.2c0.1-14.5,11.6-26.9,25.1-26.8    c13.5,0.1,24.8,12.6,24.7,27.2C448.25,436.597,436.75,448.897,423.25,448.897z" fill="#FFFFFF"/>
	</g>
</g>
<g>
</g>
<g>
</g>
<g>
</g>
<g>
</g>
<g>
</g>
<g>
</g>
<g>
</g>
<g>
</g>
<g>
</g>
<g>
</g>
<g>
</g>
<g>
</g>
<g>
</g>
<g>
</g>
<g>
</g>
</svg>
