<?xml version="1.0" encoding="iso-8859-1"?>
<!-- Generator: Adobe Illustrator 19.0.0, SVG Export Plug-In . SVG Version: 6.00 Build 0)  -->
<svg xmlns="http://www.w3.org/2000/svg" xmlns:xlink="http://www.w3.org/1999/xlink" version="1.1" id="Layer_1" x="0px" y="0px" viewBox="0 0 490.421 490.421" style="enable-background:new 0 0 490.421 490.421;" xml:space="preserve" width="512px" height="512px">
<g>
	<path d="M114.638,256.179c7.059-8.925,10.78-19.626,10.78-30.969c0-27.569-22.43-49.999-50-49.999c-27.57,0-50,22.43-50,49.999   c0,11.343,3.721,22.044,10.761,30.946l39.238,49.813L114.638,256.179z M60.512,225.21c0-8.219,6.686-14.905,14.905-14.905   c8.219,0,14.905,6.687,14.905,14.905c0,8.219-6.686,14.905-14.905,14.905C67.199,240.115,60.512,233.429,60.512,225.21z" fill="#FFFFFF"/>
	<path d="M435.003,215.21c-16.542,0-30,13.458-30,30s13.458,30,30,30s30-13.458,30-30S451.545,215.21,435.003,215.21z" fill="#FFFFFF"/>
	<path d="M90.417,146.642V90.415l329.586-54.994v151.688c4.796-1.239,9.822-1.899,15-1.899c5.178,0,10.204,0.66,15,1.899V0   L60.417,65.006v81.636c4.862-0.926,9.872-1.431,15-1.431C80.545,145.211,85.555,145.715,90.417,146.642z" fill="#FFFFFF"/>
	<path d="M420.003,303.312V455L90.417,400.006V330.21h-30v95.205l389.586,65.006V303.312c-4.796,1.239-9.822,1.899-15,1.899   C429.826,305.21,424.799,304.551,420.003,303.312z" fill="#FFFFFF"/>
</g>
<g>
</g>
<g>
</g>
<g>
</g>
<g>
</g>
<g>
</g>
<g>
</g>
<g>
</g>
<g>
</g>
<g>
</g>
<g>
</g>
<g>
</g>
<g>
</g>
<g>
</g>
<g>
</g>
<g>
</g>
</svg>
