<?xml version="1.0" encoding="iso-8859-1"?>
<!-- Generator: Adobe Illustrator 19.1.0, SVG Export Plug-In . SVG Version: 6.00 Build 0)  -->
<svg xmlns="http://www.w3.org/2000/svg" xmlns:xlink="http://www.w3.org/1999/xlink" version="1.1" id="Capa_1" x="0px" y="0px" viewBox="0 0 331.387 331.387" style="enable-background:new 0 0 331.387 331.387;" xml:space="preserve" width="512px" height="512px">
<g>
	<path d="M306.605,25.849H24.775C11.112,25.849,0,36.967,0,50.631v157.226v12.854v16.144c0,13.67,11.112,24.775,24.775,24.775   h111.39c-0.122,8.297-1.009,19.538-4.531,27.443H112.47c-4.55,0-8.233,3.689-8.233,8.233c0,4.557,3.683,8.233,8.233,8.233h106.448   c4.55,0,8.233-3.676,8.233-8.233c0-4.544-3.683-8.233-8.233-8.233h-19.171c-3.515-7.899-4.415-19.146-4.531-27.443h111.396   c13.663,0,24.775-11.112,24.775-24.775V220.71v-12.854V50.631C331.38,36.967,320.268,25.849,306.605,25.849z M318.527,236.855   c0,6.575-5.347,11.922-11.922,11.922H24.775c-6.575,0-11.922-5.347-11.922-11.922V220.71h305.68v16.144H318.527z M12.854,207.863   V50.631c0-6.575,5.347-11.928,11.922-11.928h281.83c6.575,0,11.922,5.354,11.922,11.928v157.226H12.854V207.863z" fill="#FFFFFF"/>
</g>
<g>
</g>
<g>
</g>
<g>
</g>
<g>
</g>
<g>
</g>
<g>
</g>
<g>
</g>
<g>
</g>
<g>
</g>
<g>
</g>
<g>
</g>
<g>
</g>
<g>
</g>
<g>
</g>
<g>
</g>
</svg>
