<?xml version="1.0" encoding="UTF-8" standalone="no"?>
<!-- Created with Inkscape (http://www.inkscape.org/) -->

<svg
   xmlns:dc="http://purl.org/dc/elements/1.1/"
   xmlns:cc="http://creativecommons.org/ns#"
   xmlns:rdf="http://www.w3.org/1999/02/22-rdf-syntax-ns#"
   xmlns:svg="http://www.w3.org/2000/svg"
   xmlns="http://www.w3.org/2000/svg"
   xmlns:sodipodi="http://sodipodi.sourceforge.net/DTD/sodipodi-0.dtd"
   xmlns:inkscape="http://www.inkscape.org/namespaces/inkscape"
   width="100"
   height="100"
   viewBox="0 0 100 100"
   id="svg2"
   version="1.1"
   inkscape:version="0.91 r13725"
   sodipodi:docname="prueba.svg">
  <defs
     id="defs4" />
  <sodipodi:namedview
     id="base"
     pagecolor="#ffffff"
     bordercolor="#666666"
     borderopacity="1.0"
     inkscape:pageopacity="0.0"
     inkscape:pageshadow="2"
     inkscape:zoom="0.35"
     inkscape:cx="375"
     inkscape:cy="862.85714"
     inkscape:document-units="px"
     inkscape:current-layer="layer1"
     showgrid="false"
     inkscape:window-width="1920"
     inkscape:window-height="1017"
     inkscape:window-x="-8"
     inkscape:window-y="-8"
     inkscape:window-maximized="1"
     units="px">
    <inkscape:grid
       type="xygrid"
       id="grid3453" />
  </sodipodi:namedview>
  <metadata
     id="metadata7">
    <rdf:RDF>
      <cc:Work
         rdf:about="">
        <dc:format>image/svg+xml</dc:format>
        <dc:type
           rdf:resource="http://purl.org/dc/dcmitype/StillImage" />
        <dc:title></dc:title>
      </cc:Work>
    </rdf:RDF>
  </metadata>
  <g
     inkscape:label="Capa 1"
     inkscape:groupmode="layer"
     id="layer1"
     transform="translate(0,-952.36214)">
    <g
       id="g3385"
       transform="matrix(0.32831234,0,0,0.34546968,0,949.74942)"
       style="fill:#000080">
      <g
         id="g3337"
         style="fill:#000080">
        <g
           id="g3339"
           style="fill:#000080">
          <g
             id="g3341"
             style="fill:#000080">
            <path
               id="path3343"
               d="m 97.055,95.175 -97.055,0 0,201.849 201.844,0 0,-82.924 0,-57.18 0,-61.745 -97.044,0 -7.745,0 z m 15.691,48.332 0,40.777 40.76,0 c 6.516,0 11.808,5.298 11.808,11.814 0,6.511 -5.298,11.814 -11.808,11.814 l -40.76,0 0,40.766 c 0,6.516 -5.303,11.814 -11.819,11.814 -6.516,0 -11.819,-5.298 -11.819,-11.814 l 0,-40.766 -40.755,0 c -6.516,0 -11.814,-5.303 -11.814,-11.814 0,-6.516 5.298,-11.814 11.814,-11.814 l 40.755,0 0,-40.777 c 0,-6.511 5.303,-11.808 11.819,-11.808 6.516,0 11.819,5.297 11.819,11.808 z"
               inkscape:connector-curvature="0"
               style="fill:#000080" />
          </g>
          <g
             id="g3345"
             style="fill:#000080">
            <polygon
               id="polygon3347"
               points="304.588,193.916 304.588,7.563 118.229,7.563 118.229,82.731 215.273,82.731 215.273,193.916 "
               style="fill:#000080" />
          </g>
        </g>
      </g>
      <g
         id="g3349"
         style="fill:#000080" />
      <g
         id="g3351"
         style="fill:#000080" />
      <g
         id="g3353"
         style="fill:#000080" />
      <g
         id="g3355"
         style="fill:#000080" />
      <g
         id="g3357"
         style="fill:#000080" />
      <g
         id="g3359"
         style="fill:#000080" />
      <g
         id="g3361"
         style="fill:#000080" />
      <g
         id="g3363"
         style="fill:#000080" />
      <g
         id="g3365"
         style="fill:#000080" />
      <g
         id="g3367"
         style="fill:#000080" />
      <g
         id="g3369"
         style="fill:#000080" />
      <g
         id="g3371"
         style="fill:#000080" />
      <g
         id="g3373"
         style="fill:#000080" />
      <g
         id="g3375"
         style="fill:#000080" />
      <g
         id="g3377"
         style="fill:#000080" />
    </g>
  </g>
</svg>
