<?xml version="1.0" encoding="iso-8859-1"?>
<!-- Generator: Adobe Illustrator 19.1.0, SVG Export Plug-In . SVG Version: 6.00 Build 0)  -->
<svg xmlns="http://www.w3.org/2000/svg" xmlns:xlink="http://www.w3.org/1999/xlink" version="1.1" id="Capa_1" x="0px" y="0px" viewBox="0 0 64.048 64.048" style="enable-background:new 0 0 64.048 64.048;" xml:space="preserve" width="512px" height="512px">
<g>
	<g id="group-37svg">
		<path id="path-1_29_" d="M28.227,33.052L28.227,33.052c-1.023-0.001-1.943-0.569-2.401-1.484l-7.815-15.614    c-0.029-0.056-0.053-0.113-0.074-0.172c-0.064-0.183-0.14-0.385-0.221-0.6c-0.416-1.109-0.935-2.491-0.935-3.715    C16.781,5.144,21.922,0,28.24,0c6.319,0,11.459,5.144,11.459,11.467c0,1.222-0.516,2.599-0.931,3.707    c-0.082,0.217-0.16,0.421-0.225,0.607c-0.02,0.06-0.046,0.118-0.074,0.174l-7.844,15.616    C30.167,32.485,29.248,33.052,28.227,33.052z M20.733,14.69l7.494,14.972l7.52-14.972c0.064-0.178,0.136-0.37,0.212-0.571    c0.313-0.834,0.74-1.975,0.74-2.652c0-4.667-3.795-8.465-8.459-8.465s-8.459,3.798-8.459,8.465c0,0.68,0.43,1.824,0.743,2.66    C20.6,14.326,20.67,14.515,20.733,14.69z" fill="#FFFFFF"/>
		<path id="path-2_29_" d="M28.24,18.26c-3.712,0-6.731-3.022-6.731-6.736c0-2.598,1.518-4.992,3.869-6.098    c0.753-0.353,1.643-0.03,1.996,0.72s0.03,1.644-0.719,1.997c-1.303,0.613-2.146,1.941-2.146,3.381    c0,2.059,1.674,3.734,3.731,3.734s3.731-1.675,3.731-3.734c0-1.465-0.863-2.801-2.197-3.405c-0.754-0.341-1.089-1.23-0.749-1.986    c0.342-0.754,1.228-1.091,1.986-0.749c2.405,1.088,3.96,3.498,3.96,6.14C34.971,15.238,31.951,18.26,28.24,18.26z" fill="#FFFFFF"/>
		<path id="path-3_29_" d="M54.962,64.048c-3.553,0-6.442-2.892-6.442-6.446c0-3.555,2.889-6.447,6.442-6.447    s6.442,2.892,6.442,6.447C61.404,61.156,58.515,64.048,54.962,64.048z M54.962,54.157c-1.898,0-3.442,1.545-3.442,3.445    c0,1.899,1.544,3.444,3.442,3.444s3.442-1.545,3.442-3.444C58.404,55.702,56.86,54.157,54.962,54.157z" fill="#FFFFFF"/>
		<path id="path-4_28_" d="M28.034,54.063c-3.552,0-6.441-2.892-6.441-6.447s2.889-6.447,6.441-6.447    c3.553,0,6.443,2.892,6.443,6.447S31.587,54.063,28.034,54.063z M28.034,44.171c-1.897,0-3.441,1.546-3.441,3.445    c0,1.899,1.544,3.445,3.441,3.445c1.899,0,3.443-1.546,3.443-3.445C31.477,45.717,29.933,44.171,28.034,44.171z" fill="#FFFFFF"/>
		<path id="path-5_26_" d="M9.086,63.045c-3.553,0-6.442-2.892-6.442-6.447c0-3.555,2.889-6.446,6.442-6.446    s6.442,2.891,6.442,6.446C15.528,60.153,12.639,63.045,9.086,63.045z M9.086,53.154c-1.898,0-3.442,1.545-3.442,3.444    c0,1.899,1.544,3.445,3.442,3.445s3.442-1.546,3.442-3.445C12.528,54.699,10.984,53.154,9.086,53.154z" fill="#FFFFFF"/>
		<path id="path-6_21_" d="M13.307,55.535c-0.559,0-1.096-0.314-1.354-0.852c-0.358-0.748-0.043-1.644,0.704-2.003l10.054-4.825    c0.745-0.358,1.643-0.044,2.001,0.705c0.358,0.747,0.043,1.644-0.704,2.002l-10.054,4.825    C13.745,55.488,13.524,55.535,13.307,55.535z" fill="#FFFFFF"/>
		<path id="path-7_17_" d="M50.272,57.537c-0.193,0-0.39-0.038-0.58-0.118l-17.421-7.331c-0.763-0.321-1.123-1.201-0.801-1.965    c0.32-0.764,1.2-1.124,1.964-0.802l17.42,7.33c0.764,0.322,1.124,1.202,0.802,1.966C51.415,57.191,50.858,57.537,50.272,57.537z" fill="#FFFFFF"/>
		<path id="path-8_15_" d="M28.035,44.401c-0.017,0-0.034,0-0.052,0c-0.827,0-1.476-0.838-1.448-1.666l0.206-6.189    c0.029-0.829,0.718-1.505,1.55-1.478c0.827,0.027,1.477,0.707,1.448,1.536l-0.206,6.239C29.506,43.654,28.84,44.401,28.035,44.401    z" fill="#FFFFFF"/>
	</g>
</g>
<g>
</g>
<g>
</g>
<g>
</g>
<g>
</g>
<g>
</g>
<g>
</g>
<g>
</g>
<g>
</g>
<g>
</g>
<g>
</g>
<g>
</g>
<g>
</g>
<g>
</g>
<g>
</g>
<g>
</g>
</svg>
