<?xml version="1.0" encoding="iso-8859-1"?>
<!-- Generator: Adobe Illustrator 19.0.0, SVG Export Plug-In . SVG Version: 6.00 Build 0)  -->
<svg xmlns="http://www.w3.org/2000/svg" xmlns:xlink="http://www.w3.org/1999/xlink" version="1.1" id="Layer_1" x="0px" y="0px" viewBox="0 0 335.274 335.274" style="enable-background:new 0 0 335.274 335.274;" xml:space="preserve" width="512px" height="512px">
<g id="XMLID_827_">
	<g>
		<g>
			<path d="M167.638,37.992c-33.218,0-60.242,27.024-60.242,60.242c0,33.217,27.024,60.241,60.242,60.241     c33.218,0,60.242-27.024,60.242-60.241C227.88,65.017,200.854,37.992,167.638,37.992z M167.638,138.476     c-22.189,0-40.242-18.052-40.242-40.241c0-22.189,18.053-40.242,40.242-40.242c22.189,0,40.242,18.053,40.242,40.242     C207.88,120.424,189.826,138.476,167.638,138.476z" fill="#FFFFFF"/>
			<path d="M210,200.754c13.642-14.606,27.809-30.193,35.537-39.938c13.998-17.65,21.396-38.923,21.396-61.519     C266.935,44.544,222.391,0,167.638,0c-54.753,0-99.297,44.544-99.297,99.297c0,22.594,7.405,43.873,21.415,61.537     c17.593,22.183,68.551,74.643,70.712,76.865l7.17,7.374l7.17-7.374c0.747-0.768,7.318-7.532,16.324-16.971H209     c10.276,0,18.637,8.36,18.637,18.636s-8.36,18.637-18.637,18.637h-82.727c-21.305,0-38.637,17.332-38.637,38.637     c0,21.304,17.332,38.636,38.637,38.636h41.363v-20h-41.363c-10.276,0-18.637-8.36-18.637-18.636s8.36-18.637,18.637-18.637H209     c21.305,0,38.637-17.332,38.637-38.637C247.638,218.396,230.844,201.288,210,200.754z M167.638,216.332     c-14.934-15.526-49.062-51.345-62.212-67.926c-11.177-14.093-17.085-31.074-17.085-49.109C88.341,55.572,123.912,20,167.638,20     c43.725,0,79.297,35.572,79.297,79.297c0,18.037-5.901,35.013-17.067,49.092C216.714,164.975,182.573,200.804,167.638,216.332z" fill="#FFFFFF"/>
		</g>
	</g>
</g>
<g>
</g>
<g>
</g>
<g>
</g>
<g>
</g>
<g>
</g>
<g>
</g>
<g>
</g>
<g>
</g>
<g>
</g>
<g>
</g>
<g>
</g>
<g>
</g>
<g>
</g>
<g>
</g>
<g>
</g>
</svg>
