<?xml version="1.0" encoding="iso-8859-1"?>
<!-- Generator: Adobe Illustrator 19.0.0, SVG Export Plug-In . SVG Version: 6.00 Build 0)  -->
<svg xmlns="http://www.w3.org/2000/svg" xmlns:xlink="http://www.w3.org/1999/xlink" version="1.1" id="Layer_1" x="0px" y="0px" viewBox="0 0 489.6 489.6" style="enable-background:new 0 0 489.6 489.6;" xml:space="preserve" width="512px" height="512px">
<g>
	<g>
		<path d="M481.3,67.7L398,4.2c-4.2-3.1-8.3-4.2-12.5-4.2H20.8C9.3,0,0,9.4,0,20.8v448c0,11.5,9.4,20.8,20.8,20.8h448    c11.5,0,20.8-9.4,20.8-19.8V84.4C489.6,77.1,486.5,71.9,481.3,67.7z M312.5,40.6v67.7H125V40.6H312.5z M449,449H40.6V40.6h43.7    v87.5c0,11.5,9.4,20.8,20.8,20.8h227.1c11.5,0,20.8-8.3,21.9-19.8V40.6h24l70.8,53.1V449H449z" fill="#FFFFFF"/>
		<path d="M218.8,214.6c-47.9,0-86.5,38.5-86.5,86.5c0,47.9,38.5,86.5,86.5,86.5s86.5-38.5,86.5-86.5    C305.2,253.1,266.7,214.6,218.8,214.6z M218.8,346.9c-25,0-45.8-20.8-45.8-45.8s20.8-45.8,45.8-45.8s45.8,20.8,45.8,45.8    C264.6,326,243.8,346.9,218.8,346.9z" fill="#FFFFFF"/>
	</g>
</g>
<g>
</g>
<g>
</g>
<g>
</g>
<g>
</g>
<g>
</g>
<g>
</g>
<g>
</g>
<g>
</g>
<g>
</g>
<g>
</g>
<g>
</g>
<g>
</g>
<g>
</g>
<g>
</g>
<g>
</g>
</svg>
