<?xml version="1.0" encoding="iso-8859-1"?>
<!-- Generator: Adobe Illustrator 18.0.0, SVG Export Plug-In . SVG Version: 6.00 Build 0)  -->
<!DOCTYPE svg PUBLIC "-//W3C//DTD SVG 1.1//EN" "http://www.w3.org/Graphics/SVG/1.1/DTD/svg11.dtd">
<svg xmlns="http://www.w3.org/2000/svg" xmlns:xlink="http://www.w3.org/1999/xlink" version="1.1" id="Capa_1" x="0px" y="0px" viewBox="0 0 305.092 305.092" style="enable-background:new 0 0 305.092 305.092;" xml:space="preserve" width="512px" height="512px">
<g>
	<path d="M305.092,7.501c0-4.143-3.357-7.5-7.5-7.5H49.008c-2.074,0-3.951,0.842-5.309,2.202L2.203,43.698   C0.842,45.056,0,46.933,0,49.007v248.584c0,4.142,3.357,7.5,7.5,7.5h248.584c2.039,0,3.885-0.816,5.238-2.137   c0.021-0.02,0.045-0.038,0.066-0.06l41.508-41.508c0.01-0.011,0.02-0.022,0.029-0.033c1.338-1.354,2.166-3.215,2.166-5.271V7.501z    M290.092,248.583h-26.508V52.113l26.508-26.507V248.583z M279.484,263.583l-15.9,15.9v-15.9H279.484z M41.508,25.606v15.9h-15.9   L41.508,25.606z M15,56.507h26.508v196.469L15,279.483V56.507z M248.584,290.091H25.607l26.508-26.508h196.469V290.091z    M248.584,248.583H56.508V56.507h192.076V248.583z M252.979,41.507H56.508V15.001h222.979L252.979,41.507z" fill="#FFFFFF"/>
</g>
<g>
</g>
<g>
</g>
<g>
</g>
<g>
</g>
<g>
</g>
<g>
</g>
<g>
</g>
<g>
</g>
<g>
</g>
<g>
</g>
<g>
</g>
<g>
</g>
<g>
</g>
<g>
</g>
<g>
</g>
</svg>
