<?xml version="1.0" encoding="UTF-8" standalone="no"?>
<!-- Created with Inkscape (http://www.inkscape.org/) -->

<svg
   xmlns:dc="http://purl.org/dc/elements/1.1/"
   xmlns:cc="http://creativecommons.org/ns#"
   xmlns:rdf="http://www.w3.org/1999/02/22-rdf-syntax-ns#"
   xmlns:svg="http://www.w3.org/2000/svg"
   xmlns="http://www.w3.org/2000/svg"
   xmlns:sodipodi="http://sodipodi.sourceforge.net/DTD/sodipodi-0.dtd"
   xmlns:inkscape="http://www.inkscape.org/namespaces/inkscape"
   width="100"
   height="100"
   viewBox="0 0 99.999997 99.999997"
   id="svg7211"
   version="1.1"
   inkscape:version="0.91 r13725"
   sodipodi:docname="turf-within.svg">
  <defs
     id="defs7213" />
  <sodipodi:namedview
     id="base"
     pagecolor="#ffffff"
     bordercolor="#666666"
     borderopacity="1.0"
     inkscape:pageopacity="1"
     inkscape:pageshadow="2"
     inkscape:zoom="0.98994949"
     inkscape:cx="-13.255811"
     inkscape:cy="23.355442"
     inkscape:document-units="px"
     inkscape:current-layer="layer1"
     showgrid="false"
     units="px"
     inkscape:window-width="1920"
     inkscape:window-height="1017"
     inkscape:window-x="-8"
     inkscape:window-y="-8"
     inkscape:window-maximized="1" />
  <metadata
     id="metadata7216">
    <rdf:RDF>
      <cc:Work
         rdf:about="">
        <dc:format>image/svg+xml</dc:format>
        <dc:type
           rdf:resource="http://purl.org/dc/dcmitype/StillImage" />
        <dc:title></dc:title>
      </cc:Work>
    </rdf:RDF>
  </metadata>
  <g
     inkscape:label="Capa 1"
     inkscape:groupmode="layer"
     id="layer1"
     transform="translate(0,-952.36223)">
    <path
       style="fill:#ffffff;fill-opacity:1;fill-rule:evenodd;stroke:#ffffff;stroke-width:1.83055496;stroke-linecap:butt;stroke-linejoin:miter;stroke-miterlimit:4;stroke-dasharray:5.49166469, 5.49166469;stroke-dashoffset:0;stroke-opacity:0"
       d="M 27.423828 3.0488281 C 27.401421 3.060984 27.417119 3.0769993 27.449219 3.0957031 C 27.451117 3.0582844 27.446321 3.0366261 27.423828 3.0488281 z M 27.449219 3.0957031 C 27.362884 4.7976843 2.5855144 56.700744 1.3046875 57.863281 C 2.9064206 58.480244 44.615201 98.054391 45.335938 99.640625 C 46.445462 98.294307 96.966219 70.88776 98.693359 70.695312 C 97.75775 69.242049 87.278071 12.668629 87.640625 11.025391 C 85.986083 11.468225 28.915163 3.9498867 27.449219 3.0957031 z M 87.640625 11.025391 C 87.677111 11.015625 87.696356 11.003997 87.677734 10.986328 C 87.659353 10.968887 87.648517 10.989621 87.640625 11.025391 z M 98.693359 70.695312 C 98.714139 70.727589 98.733004 70.742077 98.744141 70.71875 C 98.755326 70.69532 98.731915 70.691016 98.693359 70.695312 z M 45.335938 99.640625 C 45.311091 99.670774 45.302294 99.693862 45.328125 99.697266 C 45.353928 99.700665 45.352056 99.676099 45.335938 99.640625 z M 1.3046875 57.863281 C 1.2692771 57.849642 1.2453156 57.847761 1.25 57.873047 C 1.2547114 57.898479 1.2762152 57.889124 1.3046875 57.863281 z M 31.701172 19.732422 A 3.2488609 2.8917283 2.4580753 0 1 35.017578 21.927734 A 3.2488609 2.8917283 2.4580753 0 1 32.683594 25.431641 A 3.2488609 2.8917283 2.4580753 0 1 28.726562 23.318359 A 3.2488609 2.8917283 2.4580753 0 1 31.060547 19.814453 A 3.2488609 2.8917283 2.4580753 0 1 31.701172 19.732422 z M 67.058594 22.410156 A 3.2488609 2.8917283 2.4580753 0 1 70.375 24.605469 A 3.2488609 2.8917283 2.4580753 0 1 68.041016 28.107422 A 3.2488609 2.8917283 2.4580753 0 1 64.083984 25.994141 A 3.2488609 2.8917283 2.4580753 0 1 66.417969 22.492188 A 3.2488609 2.8917283 2.4580753 0 1 67.058594 22.410156 z M 26.910156 27.146484 A 0.92574078 1.6929008 0 0 1 27.835938 28.839844 A 0.92574078 1.6929008 0 0 1 26.910156 30.533203 A 0.92574078 1.6929008 0 0 1 25.984375 28.839844 A 0.92574078 1.6929008 0 0 1 26.910156 27.146484 z M 21.392578 50.419922 A 3.2488609 2.8917283 2.4580753 0 1 24.708984 52.615234 A 3.2488609 2.8917283 2.4580753 0 1 22.375 56.119141 A 3.2488609 2.8917283 2.4580753 0 1 18.417969 54.005859 A 3.2488609 2.8917283 2.4580753 0 1 20.751953 50.501953 A 3.2488609 2.8917283 2.4580753 0 1 21.392578 50.419922 z M 76.919922 56.660156 A 3.2488609 2.8917283 2.4580753 0 1 80.236328 58.855469 A 3.2488609 2.8917283 2.4580753 0 1 77.902344 62.359375 A 3.2488609 2.8917283 2.4580753 0 1 73.945312 60.246094 A 3.2488609 2.8917283 2.4580753 0 1 76.279297 56.744141 A 3.2488609 2.8917283 2.4580753 0 1 76.919922 56.660156 z M 47.607422 75.248047 A 3.2488609 2.8917283 2.4580753 0 1 50.923828 77.441406 A 3.2488609 2.8917283 2.4580753 0 1 48.589844 80.945312 A 3.2488609 2.8917283 2.4580753 0 1 44.632812 78.832031 A 3.2488609 2.8917283 2.4580753 0 1 46.966797 75.330078 A 3.2488609 2.8917283 2.4580753 0 1 47.607422 75.248047 z "
       transform="translate(0,952.36223)"
       id="path7219" />
  </g>
</svg>
