<?xml version="1.0" encoding="UTF-8" standalone="no"?>
<!-- Generator: Adobe Illustrator 18.0.0, SVG Export Plug-In . SVG Version: 6.00 Build 0)  -->

<svg
   xmlns:dc="http://purl.org/dc/elements/1.1/"
   xmlns:cc="http://creativecommons.org/ns#"
   xmlns:rdf="http://www.w3.org/1999/02/22-rdf-syntax-ns#"
   xmlns:svg="http://www.w3.org/2000/svg"
   xmlns="http://www.w3.org/2000/svg"
   xmlns:sodipodi="http://sodipodi.sourceforge.net/DTD/sodipodi-0.dtd"
   xmlns:inkscape="http://www.inkscape.org/namespaces/inkscape"
   version="1.1"
   x="0px"
   y="0px"
   viewBox="0 0 100 100"
   style="enable-background:new 0 0 100 100;"
   xml:space="preserve"
   id="svg5422"
   inkscape:version="0.91 r13725"
   sodipodi:docname="turf-identity.svg"><metadata
     id="metadata5432"><rdf:RDF><cc:Work
         rdf:about=""><dc:format>image/svg+xml</dc:format><dc:type
           rdf:resource="http://purl.org/dc/dcmitype/StillImage" /><dc:title></dc:title></cc:Work></rdf:RDF></metadata><defs
     id="defs5430" /><sodipodi:namedview
     pagecolor="#ffffff"
     bordercolor="#666666"
     borderopacity="1"
     objecttolerance="10"
     gridtolerance="10"
     guidetolerance="10"
     inkscape:pageopacity="1"
     inkscape:pageshadow="2"
     inkscape:window-width="1920"
     inkscape:window-height="1017"
     id="namedview5428"
     showgrid="false"
     inkscape:zoom="2.36"
     inkscape:cx="-28.177966"
     inkscape:cy="50"
     inkscape:window-x="-8"
     inkscape:window-y="-8"
     inkscape:window-maximized="1"
     inkscape:current-layer="svg5422" /><g
     id="turf-merge" /><g
     id="Layer_1" /><path
     id="path5440"
     style="color:#000000;font-style:normal;font-variant:normal;font-weight:normal;font-stretch:normal;font-size:medium;line-height:normal;font-family:sans-serif;text-indent:0;text-align:start;text-decoration:none;text-decoration-line:none;text-decoration-style:solid;text-decoration-color:#000000;letter-spacing:normal;word-spacing:normal;text-transform:none;direction:ltr;block-progression:tb;writing-mode:lr-tb;baseline-shift:baseline;text-anchor:start;white-space:normal;clip-rule:nonzero;display:inline;overflow:visible;visibility:visible;opacity:1;isolation:auto;mix-blend-mode:normal;color-interpolation:sRGB;color-interpolation-filters:linearRGB;solid-color:#000000;solid-opacity:1;fill:#ffffff;fill-opacity:1;fill-rule:evenodd;stroke:none;stroke-width:3.60400009;stroke-linecap:butt;stroke-linejoin:miter;stroke-miterlimit:4;stroke-dasharray:7.208, 3.60400000000000010;stroke-dashoffset:0;stroke-opacity:1;color-rendering:auto;image-rendering:auto;shape-rendering:auto;text-rendering:auto;enable-background:accumulate"
     d="m 43.386719,44.990234 0.279297,0.308594 0.414062,0.544922 0.01172,0.01367 1.236328,1.796875 0.01367,0.02344 0.01367,0.01758 1.710937,2.636719 0.0078,0.01172 0.0059,0.0098 0.199219,0.318359 3.050781,-1.917969 -0.21289,-0.339844 -0.0059,-0.0098 -0.0078,-0.01172 -1.751954,-2.701172 -0.01367,-0.01953 -0.01367,-0.02148 -1.316407,-1.910157 -0.02539,-0.03711 -0.02734,-0.03516 -0.46875,-0.615235 -0.04687,-0.06055 -0.05078,-0.05469 -0.332031,-0.367188 z m 5.798828,8.714844 3.765625,6.146484 3.074219,-1.882812 -3.767579,-6.146484 z m 5.630859,9.210938 3.714844,6.177734 3.089844,-1.857422 -3.714844,-6.177734 z m 5.558594,9.261718 3.675781,6.201172 3.09961,-1.83789 -3.675782,-6.201172 z m 5.513672,9.300782 3.644531,6.146484 0.0039,0.0059 0.02344,0.04102 3.107422,-1.824219 -0.02734,-0.04687 -0.002,-0.0039 -0.002,-0.0039 -3.648438,-6.152344 z m 5.496094,9.300781 2.568359,4.375 3.107422,-1.824219 -2.568359,-4.375 z M 76.111,36.407 79.949,19.467 c 0.228,-1 -0.34,-2.01 -1.312,-2.337 L 38.462,3.613 C 37.793,3.387 37.052,3.533 36.516,3.995 L 8.109,28.552 c -0.502,0.435 -0.756,1.089 -0.678,1.749 l 4.7,39.609 c 0.111,0.936 0.859,1.667 1.797,1.756 l 14.745,1.396 c 3.583,14.489 16.717,24.855 31.784,24.855 18.056,0 32.744,-14.689 32.744,-32.744 C 93.202,53.224 86.544,42.104 76.111,36.407 Z M 52.686,33.356 c 2.948,-0.718 6.031,-1.022 9.073,-0.903 1.104,0.042 1.964,0.972 1.921,2.075 -0.042,1.104 -0.924,1.975 -2.075,1.922 -2.672,-0.102 -5.383,0.162 -7.972,0.792 -0.159,0.039 -0.318,0.057 -0.476,0.057 -0.9,0 -1.719,-0.613 -1.941,-1.527 -0.261,-1.072 0.396,-2.154 1.47,-2.416 z M 28.449,58.242 c 0.644,-2.986 1.705,-5.867 3.155,-8.563 0.523,-0.973 1.736,-1.338 2.708,-0.814 0.973,0.523 1.337,1.736 0.814,2.709 -1.272,2.364 -2.203,4.892 -2.768,7.51 -0.202,0.938 -1.031,1.579 -1.953,1.579 -0.14,0 -0.281,-0.015 -0.423,-0.045 -1.079,-0.232 -1.766,-1.297 -1.533,-2.376 z m 5.844,15.342 c -0.063,0 -0.127,-0.003 -0.191,-0.009 L 30.12,73.198 c -0.879,-0.083 -1.6,-0.734 -1.773,-1.601 -0.277,-1.389 -0.465,-2.808 -0.561,-4.22 -0.074,-1.103 0.759,-2.056 1.861,-2.13 1.114,-0.096 2.056,0.76 2.13,1.86 0.05,0.751 0.131,1.504 0.241,2.252 l 2.46,0.232 c 1.1,0.104 1.907,1.08 1.803,2.18 -0.097,1.037 -0.968,1.813 -1.988,1.813 z m 4.141,-27.863 c -0.503,0 -1.007,-0.189 -1.396,-0.568 -0.791,-0.771 -0.807,-2.037 -0.036,-2.828 2.136,-2.191 4.561,-4.071 7.209,-5.587 0.958,-0.549 2.181,-0.217 2.729,0.742 0.549,0.958 0.217,2.18 -0.742,2.729 -2.325,1.332 -4.456,2.983 -6.332,4.908 -0.392,0.402 -0.912,0.604 -1.432,0.604 z m 13.959,29.576 c -0.062,0 -0.126,-0.003 -0.19,-0.009 l -9.05,-0.856 c -1.1,-0.104 -1.907,-1.08 -1.803,-2.18 0.104,-1.1 1.081,-1.903 2.18,-1.803 l 9.05,0.856 c 1.1,0.104 1.906,1.08 1.803,2.18 -0.099,1.036 -0.971,1.812 -1.99,1.812 z m 15.864,-4.226 -0.884,3.9 c -0.208,0.918 -1.023,1.558 -1.948,1.558 -0.063,0 -0.126,-0.003 -0.189,-0.009 l -3.982,-0.376 c -1.101,-0.104 -1.907,-1.079 -1.804,-2.179 0.103,-1.1 1.074,-1.91 2.179,-1.804 l 2.232,0.211 0.496,-2.187 c 0.244,-1.076 1.312,-1.756 2.393,-1.508 1.076,0.246 1.751,1.316 1.507,2.394 z m 4.419,-19.501 -2.21,9.75 c -0.21,0.928 -1.035,1.558 -1.948,1.558 -0.146,0 -0.295,-0.016 -0.444,-0.05 -1.077,-0.244 -1.752,-1.315 -1.508,-2.393 l 2.21,-9.75 c 0.243,-1.078 1.312,-1.751 2.393,-1.509 1.076,0.245 1.751,1.317 1.507,2.394 z m 3.093,-13.652 -0.884,3.901 c -0.21,0.928 -1.035,1.559 -1.948,1.559 -0.146,0 -0.295,-0.016 -0.443,-0.05 -1.078,-0.244 -1.753,-1.315 -1.509,-2.393 l 0.522,-2.306 c -0.665,-0.277 -1.341,-0.53 -2.021,-0.754 -1.049,-0.347 -1.618,-1.479 -1.271,-2.527 0.346,-1.048 1.479,-1.617 2.526,-1.271 1.343,0.444 2.67,0.982 3.945,1.598 0.84,0.405 1.289,1.335 1.083,2.243 z" /></svg>