<?xml version="1.0" encoding="iso-8859-1"?>
<!-- Generator: Adobe Illustrator 19.0.0, SVG Export Plug-In . SVG Version: 6.00 Build 0)  -->
<svg xmlns="http://www.w3.org/2000/svg" xmlns:xlink="http://www.w3.org/1999/xlink" version="1.1" id="Layer_1" x="0px" y="0px" viewBox="0 0 458.238 458.238" style="enable-background:new 0 0 458.238 458.238;" xml:space="preserve" width="512px" height="512px">
<g>
	<g>
		<g>
			<path d="M438.968,346.348l-78.313-78.313c-5.737-5.736-15.038-5.736-20.775,0l-24.35,24.35l-12.299-12.299     c25.307-30.589,39.081-68.676,39.081-108.881c0-45.72-17.804-88.704-50.134-121.032c-66.892-66.894-175.165-66.902-242.065,0     c-66.738,66.737-66.738,175.327,0,242.065c64.066,64.065,165.586,66.516,232.551,8.831l12.092,12.091l-26.779,26.779     c-5.734,5.733-5.736,15.04,0,20.775l78.313,78.313c25.611,25.612,67.066,25.616,92.679,0     C464.58,413.416,464.583,371.962,438.968,346.348z M271.404,271.463c-55.412,55.413-145.099,55.417-200.516,0     c-55.282-55.283-55.282-145.234,0-200.516c55.414-55.413,145.098-55.417,200.516,0c26.78,26.78,41.528,62.385,41.528,100.258     C312.932,209.077,298.184,244.684,271.404,271.463z M418.193,418.252c-14.13,14.132-36.998,14.131-51.129,0l-67.925-67.925     l51.129-51.129l67.926,67.925C432.322,381.251,432.325,404.121,418.193,418.252z" fill="#FFFFFF"/>
			<path d="M225.703,116.681c-5.858-5.858-15.355-5.858-21.213,0l-33.311,33.311l-33.311-33.311c-5.858-5.858-15.355-5.858-21.213,0     c-5.858,5.858-5.858,15.355,0,21.213l33.311,33.311l-33.311,33.312c-5.858,5.857-5.858,15.355,0,21.213     c5.858,5.858,15.355,5.858,21.213,0l33.311-33.311l33.311,33.311c5.858,5.858,15.355,5.858,21.213,0     c5.858-5.858,5.858-15.355,0-21.213l-33.311-33.312l33.311-33.311C231.561,132.036,231.561,122.539,225.703,116.681z" fill="#FFFFFF"/>
		</g>
	</g>
</g>
<g>
</g>
<g>
</g>
<g>
</g>
<g>
</g>
<g>
</g>
<g>
</g>
<g>
</g>
<g>
</g>
<g>
</g>
<g>
</g>
<g>
</g>
<g>
</g>
<g>
</g>
<g>
</g>
<g>
</g>
</svg>
